<svg width="250" height="245" viewBox="0 0 250 245" fill="none" xmlns="http://www.w3.org/2000/svg">
<g clip-path="url(#clip0_11_2347)">
<path d="M209.794 235.265L205.544 235.229L203.663 218.427L209.935 218.48L209.794 235.265Z" fill="#A0616A"/>
<path d="M196.181 242.034C196.177 242.538 196.373 243.024 196.727 243.384C197.08 243.743 197.561 243.948 198.065 243.953L206.515 244.024L207.994 241.021L208.537 244.039L211.725 244.068L210.92 233.302L209.811 233.228L205.287 232.916L203.827 232.818L203.801 235.864L197.014 240.475C196.759 240.648 196.551 240.88 196.406 241.152C196.261 241.423 196.184 241.726 196.181 242.034Z" fill="#2F2E41"/>
<path d="M162.762 235.284L158.71 233.999L161.84 217.385L167.82 219.282L162.762 235.284Z" fill="#A0616A"/>
<path d="M147.764 237.748C147.612 238.229 147.657 238.751 147.889 239.199C148.121 239.647 148.521 239.984 149.001 240.137L157.057 242.692L159.352 240.256L158.986 243.301L162.025 244.267L164.414 233.74L163.375 233.342L159.142 231.712L157.776 231.189L156.858 234.093L149.017 236.504C148.723 236.594 148.455 236.755 148.237 236.971C148.019 237.188 147.856 237.455 147.764 237.748Z" fill="#2F2E41"/>
<path d="M222.511 235.871C222.747 235.882 222.98 235.82 223.179 235.694C223.378 235.568 223.534 235.383 223.625 235.165C223.716 234.948 223.737 234.707 223.687 234.476C223.637 234.246 223.517 234.036 223.344 233.876L223.266 233.562C223.276 233.537 223.286 233.512 223.297 233.487C223.534 232.925 223.932 232.447 224.439 232.111C224.947 231.775 225.543 231.598 226.151 231.6C226.76 231.602 227.354 231.784 227.86 232.124C228.365 232.463 228.759 232.945 228.992 233.508C229.923 235.755 231.109 238.006 231.401 240.381C231.53 241.432 231.476 242.496 231.241 243.528C233.429 238.748 234.565 233.552 234.572 228.294C234.573 226.975 234.499 225.656 234.353 224.345C234.232 223.27 234.064 222.202 233.849 221.143C232.676 215.393 230.159 210.004 226.503 205.417C224.733 204.45 223.302 202.963 222.403 201.157C222.077 200.507 221.847 199.814 221.719 199.098C221.919 199.125 222.472 196.08 222.321 195.893C222.599 195.47 223.097 195.26 223.401 194.848C224.912 192.796 226.993 193.154 228.08 195.942C230.402 197.116 230.424 199.062 229 200.934C228.093 202.125 227.969 203.736 227.174 205.011C227.256 205.116 227.341 205.218 227.422 205.322C228.918 207.248 230.221 209.317 231.314 211.497C231.048 209.054 231.365 206.583 232.239 204.287C233.125 202.147 234.785 200.344 236.247 198.494C236.633 197.997 237.158 197.626 237.756 197.428C238.353 197.23 238.995 197.214 239.602 197.381C240.208 197.549 240.751 197.892 241.163 198.369C241.574 198.846 241.835 199.434 241.913 200.059C241.916 200.086 241.919 200.113 241.922 200.141C241.704 200.263 241.492 200.394 241.284 200.531C241.023 200.706 240.82 200.956 240.703 201.248C240.586 201.54 240.56 201.861 240.628 202.168C240.696 202.475 240.855 202.755 241.084 202.97C241.313 203.185 241.602 203.326 241.913 203.374L241.944 203.379C241.867 204.163 241.73 204.94 241.535 205.703C243.411 212.967 239.362 215.613 233.581 215.732C233.453 215.797 233.329 215.863 233.201 215.925C234.299 219.041 234.987 222.287 235.25 225.58C235.398 227.524 235.389 229.476 235.223 231.418L235.233 231.349C235.652 229.189 236.802 227.241 238.489 225.833C240.995 223.771 244.534 223.012 247.238 221.355C247.525 221.17 247.859 221.072 248.2 221.071C248.542 221.07 248.876 221.167 249.164 221.35C249.452 221.534 249.682 221.796 249.827 222.106C249.971 222.415 250.024 222.76 249.979 223.099L249.968 223.171C249.565 223.336 249.173 223.525 248.793 223.738C248.576 223.861 248.364 223.991 248.156 224.129C247.894 224.304 247.692 224.554 247.575 224.846C247.458 225.138 247.431 225.459 247.499 225.766C247.567 226.073 247.726 226.353 247.956 226.568C248.185 226.783 248.474 226.924 248.784 226.972L248.816 226.977C248.839 226.98 248.859 226.983 248.882 226.986C248.193 228.633 247.227 230.149 246.025 231.467C244.852 237.808 239.816 238.41 234.428 236.563H234.425C233.834 239.136 232.977 241.64 231.869 244.036H222.74C222.707 243.934 222.678 243.829 222.648 243.728C223.493 243.781 224.342 243.73 225.174 243.577C224.497 242.744 223.82 241.905 223.142 241.073C223.127 241.057 223.113 241.041 223.1 241.024C222.756 240.598 222.409 240.175 222.066 239.749L222.066 239.748C222.047 238.442 222.197 237.139 222.511 235.872L222.511 235.871Z" fill="#F5F5F5"/>
<path d="M120.4 244.063C120.4 244.142 120.415 244.221 120.445 244.294C120.476 244.368 120.52 244.434 120.576 244.49C120.632 244.546 120.699 244.591 120.772 244.621C120.845 244.651 120.924 244.667 121.003 244.667H249.326C249.486 244.667 249.639 244.603 249.752 244.49C249.865 244.377 249.929 244.223 249.929 244.063C249.929 243.903 249.865 243.749 249.752 243.636C249.639 243.523 249.486 243.459 249.326 243.459H121.003C120.924 243.459 120.845 243.474 120.772 243.504C120.699 243.535 120.632 243.579 120.576 243.635C120.52 243.691 120.476 243.758 120.445 243.831C120.415 243.905 120.4 243.983 120.4 244.063Z" fill="#35383F"/>
<path d="M241.984 131.457C244.502 131.457 246.543 129.413 246.543 126.89C246.543 124.368 244.502 122.323 241.984 122.323C239.466 122.323 237.424 124.368 237.424 126.89C237.424 129.413 239.466 131.457 241.984 131.457Z" fill="#9E9E9E"/>
<path d="M159.454 55.3628H146.152V168.951C146.152 170.733 145.802 172.498 145.121 174.144C144.44 175.791 143.442 177.287 142.183 178.547C140.925 179.807 139.432 180.807 137.788 181.489C136.144 182.171 134.382 182.522 132.603 182.522H30.9042V182.651C30.9042 184.434 31.2546 186.198 31.9355 187.845C32.6164 189.491 33.6145 190.987 34.8726 192.248C36.1308 193.508 37.6245 194.507 39.2683 195.189C40.9122 195.871 42.6741 196.222 44.4534 196.222H159.454C161.233 196.222 162.995 195.871 164.639 195.189C166.283 194.507 167.776 193.508 169.035 192.248C170.293 190.987 171.291 189.491 171.972 187.845C172.653 186.198 173.003 184.434 173.003 182.651V68.9337C173.003 65.3345 171.576 61.8827 169.035 59.3376C166.494 56.7926 163.047 55.3628 159.454 55.3628Z" fill="#F7FCFF"/>
<path d="M121.957 39.9116C122.29 40.4174 122.729 40.8447 123.244 41.1638C123.758 41.4829 124.336 41.6864 124.936 41.76C125.537 41.8336 126.146 41.7757 126.722 41.5902C127.298 41.4048 127.827 41.0962 128.273 40.6858L147.253 49.2629L150.913 44.5878L128.295 34.5657C127.549 33.8664 126.574 33.4652 125.553 33.4382C124.532 33.4112 123.536 33.7603 122.755 34.4192C121.974 35.0782 121.461 36.0012 121.314 37.0135C121.167 38.0258 121.396 39.057 121.957 39.9116H121.957Z" fill="#A0616A"/>
<path d="M203.414 45.26L205.297 55.9447C205.385 56.4432 205.367 56.9546 205.246 57.446C205.125 57.9374 204.903 58.398 204.593 58.7983C204.284 59.1985 203.894 59.5295 203.45 59.7701C203.005 60.0106 202.515 60.1554 202.011 60.1951L170.024 62.7146L132.424 45.8598L136.914 37.321L169.555 47.6738L203.414 45.26Z" fill="#FFB6B6"/>
<path d="M128.55 37.6025H13.5492C6.0662 37.6025 0 43.6785 0 51.1735V164.891C0 172.386 6.0662 178.462 13.5492 178.462H128.55C136.033 178.462 142.099 172.386 142.099 164.891V51.1735C142.099 43.6785 136.033 37.6025 128.55 37.6025Z" fill="#1F222A"/>
<path d="M13.5493 40.3933C12.1359 40.3933 10.7364 40.6721 9.43056 41.2139C8.12476 41.7556 6.93828 42.5497 5.93885 43.5507C4.93943 44.5517 4.14664 45.7401 3.60576 47.048C3.06488 48.3559 2.7865 49.7577 2.7865 51.1734V164.891C2.7865 167.75 3.92043 170.492 5.93885 172.514C7.95728 174.535 10.6948 175.671 13.5493 175.671H86.9454C93.8223 175.671 100.632 174.315 106.985 171.679C113.339 169.043 119.112 165.179 123.974 160.309C128.837 155.438 132.695 149.656 135.326 143.292C137.958 136.929 139.312 130.108 139.312 123.22V51.1734C139.312 49.7577 139.034 48.3559 138.493 47.048C137.952 45.7401 137.16 44.5517 136.16 43.5507C135.161 42.5497 133.974 41.7556 132.668 41.2139C131.363 40.6721 129.963 40.3933 128.55 40.3933H13.5493Z" fill="white"/>
<path d="M150.361 180.056H108.106C107.513 180.056 106.945 179.82 106.527 179.401C106.108 178.981 105.872 178.412 105.872 177.819C105.872 177.226 106.108 176.657 106.527 176.237C106.945 175.818 107.513 175.582 108.106 175.582H150.361C150.954 175.582 151.522 175.818 151.941 176.237C152.359 176.657 152.595 177.226 152.595 177.819C152.595 178.412 152.359 178.981 151.941 179.401C151.522 179.82 150.954 180.056 150.361 180.056Z" fill="#9E9E9E"/>
<path d="M144.715 145.731H48.9631C46.8804 145.731 44.8831 146.56 43.4104 148.035C41.9377 149.51 41.1104 151.511 41.1104 153.597C41.1104 155.683 41.9377 157.683 43.4104 159.158C44.8831 160.633 46.8804 161.462 48.9631 161.462H144.715C146.798 161.462 148.795 160.633 150.268 159.158C151.741 157.683 152.568 155.683 152.568 153.597C152.568 151.511 151.741 149.51 150.268 148.035C148.795 146.56 146.798 145.731 144.715 145.731Z" fill="white"/>
<path d="M144.715 161.97H48.9631C46.7461 161.97 44.6199 161.087 43.0522 159.517C41.4845 157.947 40.6038 155.817 40.6038 153.597C40.6038 151.376 41.4845 149.247 43.0522 147.676C44.6199 146.106 46.7461 145.224 48.9631 145.224H144.715C146.932 145.224 149.059 146.106 150.626 147.676C152.194 149.247 153.075 151.376 153.075 153.597C153.075 155.817 152.194 157.947 150.626 159.517C149.059 161.087 146.932 161.97 144.715 161.97ZM48.9631 146.239C47.0148 146.239 45.1463 147.014 43.7687 148.394C42.391 149.774 41.617 151.645 41.617 153.597C41.617 155.548 42.391 157.42 43.7687 158.8C45.1463 160.179 47.0148 160.955 48.9631 160.955H144.715C146.664 160.955 148.532 160.179 149.91 158.8C151.287 157.42 152.061 155.548 152.061 153.597C152.061 151.645 151.287 149.774 149.91 148.394C148.532 147.014 146.664 146.239 144.715 146.239H48.9631Z" fill="#FF6584"/>
<path d="M103.197 122.604H38.6501C38.0578 122.604 37.4898 122.368 37.071 121.949C36.6522 121.529 36.4169 120.96 36.4169 120.367C36.4169 119.774 36.6522 119.205 37.071 118.785C37.4898 118.366 38.0578 118.13 38.6501 118.13H103.197C103.79 118.13 104.358 118.366 104.777 118.785C105.195 119.205 105.431 119.774 105.431 120.367C105.431 120.96 105.195 121.529 104.777 121.949C104.358 122.368 103.79 122.604 103.197 122.604Z" fill="#1F222A"/>
<path d="M129.409 98.77H12.4388C11.8465 98.77 11.2785 98.5343 10.8597 98.1148C10.4408 97.6954 10.2056 97.1264 10.2056 96.5332C10.2056 95.9399 10.4408 95.371 10.8597 94.9515C11.2785 94.532 11.8465 94.2964 12.4388 94.2964H129.409C130.001 94.2964 130.569 94.532 130.988 94.9515C131.407 95.371 131.642 95.9399 131.642 96.5332C131.642 97.1264 131.407 97.6954 130.988 98.1148C130.569 98.5343 130.001 98.77 129.409 98.77Z" fill="#1F222A"/>
<path d="M199.373 92.3541L187.72 117.218L232.545 112.671L223.188 88.802L199.373 92.3541Z" fill="#A0616A"/>
<path d="M230.504 105.679L189.747 113.159C189.747 113.159 183.21 118.057 184.959 119.811C186.707 121.565 186.979 121.293 185.83 122.444C184.681 123.595 182.197 125.133 182.172 126.14C182.148 127.147 163.909 172.308 163.909 172.308C163.909 172.308 165.936 171.294 164.416 172.816C162.896 174.338 162.896 175.596 162.896 175.596L155.803 223.56L167.322 224.239L178.601 180.511L203.76 139.661C203.76 139.661 206.256 176.089 206.361 178.512C206.466 180.935 207.986 177.89 206.466 180.935C204.946 183.979 203.933 181.95 204.946 183.979C205.959 186.009 201.296 227.332 201.296 227.332H211.81L234.36 141.681C234.36 141.681 242.383 117.195 230.504 105.679Z" fill="#2F2E41"/>
<path d="M242.035 128.774C242.359 128.262 242.568 127.686 242.648 127.085C242.728 126.484 242.677 125.873 242.497 125.294C242.318 124.715 242.016 124.182 241.611 123.732C241.206 123.282 240.708 122.925 240.152 122.686L240.185 101.83L234.427 100.403L234.569 125.174C234.238 126.142 234.272 127.198 234.666 128.141C235.06 129.085 235.786 129.852 236.706 130.295C237.626 130.739 238.677 130.829 239.659 130.549C240.641 130.268 241.487 129.637 242.035 128.774V128.774Z" fill="#A0616A"/>
<path d="M103.197 74.9047H38.6501C38.0578 74.9047 37.4898 74.6691 37.071 74.2496C36.6522 73.8301 36.4169 73.2612 36.4169 72.6679C36.4169 72.0747 36.6522 71.5058 37.071 71.0863C37.4898 70.6668 38.0578 70.4312 38.6501 70.4312H103.197C103.79 70.4312 104.358 70.6668 104.777 71.0863C105.195 71.5058 105.431 72.0747 105.431 72.6679C105.431 73.2612 105.195 73.8301 104.777 74.2496C104.358 74.6691 103.79 74.9047 103.197 74.9047Z" fill="#1F222A"/>
<path d="M218.497 37.169L202.171 35.47L197.942 40.9702L193.014 43.5989C190.929 44.7113 189.208 46.4017 188.056 48.4681C186.905 50.5344 186.372 52.8892 186.522 55.2508L192.28 88.802C192.28 88.802 187.416 99.7724 190.76 102.503C194.105 105.233 188.175 111.996 195.32 108.592C202.465 105.189 233.317 109.099 233.317 109.099L226.731 90.3243L231.651 71.8752L232.192 56.4058C232.294 53.5151 231.437 50.6721 229.756 48.3199C228.076 45.9677 225.666 44.2385 222.901 43.4018L222.213 43.1936L218.497 37.169Z" fill="#FF6584"/>
<path d="M213.524 52.16L222.483 46.0614C222.901 45.7769 223.374 45.5831 223.871 45.4924C224.369 45.4017 224.879 45.4161 225.37 45.5347C225.862 45.6534 226.323 45.8736 226.724 46.1813C227.125 46.4889 227.458 46.8772 227.701 47.3213L243.104 75.5138L243.163 116.774L233.546 116.17L229.598 82.106L213.524 52.16Z" fill="#FFB6B6"/>
<path d="M240.973 24.633C241.08 29.2421 239.361 33.705 236.89 37.6249C236.156 35.3365 234.836 33.2537 233.46 31.2683C234.154 35.5634 233.415 39.9677 231.358 43.7997C231.285 43.8517 231.21 43.9 231.133 43.9443C229.119 45.1576 226.566 45.649 224.387 44.7727C228.888 39.9132 229.461 31.8616 225.688 26.4108C224.619 24.8641 223.237 23.4962 222.576 21.7361C221.531 18.9276 222.535 15.8355 223.169 12.9074C223.761 10.1823 223.865 6.93934 222.04 4.94215C222.235 4.66305 222.5 4.44088 222.809 4.29842C223.118 4.15595 223.459 4.09831 223.798 4.1314C224.923 4.29063 225.742 5.27042 226.264 6.27954C226.786 7.28864 227.13 8.40706 227.857 9.27867C229.204 10.9101 231.497 11.2958 233.429 12.1556C238.109 14.2435 240.861 19.5044 240.973 24.633Z" fill="#2F2E41"/>
<path d="M201.579 21.9979C201.847 21.0604 200.003 26.7913 200.893 26.8948C204.944 27.3603 210.506 29.7837 213.327 30.9143C213.454 30.8995 213.581 30.8847 213.705 30.8662C214.007 30.833 214.303 30.785 214.594 30.7295C221.164 29.4844 223.691 19.3756 223.691 19.2832C223.691 18.8288 222.602 6.34715 220.887 6.16244C220.436 6.11348 219.983 6.08881 219.53 6.08855H215.273C214.392 5.89843 213.5 5.76881 212.601 5.70061H212.594C204.024 5.04664 197.267 10.2783 197.898 16.6443C197.902 16.6517 197.91 16.6591 197.913 16.6665C198.096 16.9399 198.257 17.1985 198.399 17.446C198.537 17.6788 198.653 17.9005 198.754 18.1111C199.535 19.7368 197.527 21.7824 198.859 22.1642C200.629 22.672 194.202 39.363 201.21 39.363C197.801 40.3338 200.842 24.5842 201.579 21.9979Z" fill="#2F2E41"/>
<path d="M209.229 31.7915C214.796 31.7915 219.308 27.2719 219.308 21.6968C219.308 16.1216 214.796 11.6021 209.229 11.6021C203.663 11.6021 199.151 16.1216 199.151 21.6968C199.151 27.2719 203.663 31.7915 209.229 31.7915Z" fill="#FFB6B6"/>
<path d="M197.898 17.1947C198.066 17.2833 198.231 17.3646 198.399 17.4459C198.575 17.5309 198.75 17.6159 198.926 17.6934C202.301 19.2267 205.048 19.3967 206.715 17.1947C206.759 16.036 207.019 14.8958 207.481 13.8325C207.399 15.0207 207.712 16.2027 208.37 17.1947H211.726C215.184 19.4927 216.959 19.7329 214.559 27.2775C213.89 29.3798 211.23 41.6129 212.277 43.427C212.58 43.3938 215.8 29.9947 216.092 29.9393C222.662 28.6942 226.837 17.8523 226.302 17.239C226.305 15.4949 225.904 13.7738 225.132 12.2105C224.156 10.2299 222.633 8.57083 220.745 7.42957C219.619 6.88291 218.446 6.44136 217.239 6.11055C217.209 6.10315 217.183 6.09576 217.153 6.08838C216.783 5.98862 216.406 5.89625 216.028 5.81866C215.248 5.65374 214.46 5.53408 213.666 5.46028C213.61 5.45658 213.554 5.45288 213.502 5.45288C213.185 5.45362 212.874 5.53909 212.601 5.70044C212.597 5.70044 212.597 5.70412 212.594 5.70412C212.399 5.81825 212.228 5.97024 212.093 6.15117C211.854 6.45561 211.725 6.83186 211.726 7.21894H207.989C207.851 7.21894 207.713 7.22263 207.574 7.23002C205.08 7.31539 202.707 8.33 200.92 10.0753C199.133 11.8206 198.061 14.1709 197.913 16.6663C197.902 16.8437 197.898 17.0173 197.898 17.1947Z" fill="#2F2E41"/>
<path d="M219.935 13.9677C223.602 13.9677 226.574 10.9902 226.574 7.31721C226.574 3.64426 223.602 0.666748 219.935 0.666748C216.267 0.666748 213.295 3.64426 213.295 7.31721C213.295 10.9902 216.267 13.9677 219.935 13.9677Z" fill="#2F2E41"/>
</g>
<defs>
<clipPath id="clip0_11_2347">
<rect width="250" height="244" fill="white" transform="translate(0 0.666748)"/>
</clipPath>
</defs>
</svg>
