<svg width="33" height="33" viewBox="0 0 33 33" fill="none" xmlns="http://www.w3.org/2000/svg">
<path d="M16.5 3.4375C13.0356 3.4375 9.71311 4.81372 7.26342 7.26342C4.81372 9.71311 3.4375 13.0356 3.4375 16.5C3.4375 19.9644 4.81372 23.2869 7.26342 25.7366C9.71311 28.1863 13.0356 29.5625 16.5 29.5625C19.9644 29.5625 23.2869 28.1863 25.7366 25.7366C28.1863 23.2869 29.5625 19.9644 29.5625 16.5C29.5625 13.0356 28.1863 9.71311 25.7366 7.26342C23.2869 4.81372 19.9644 3.4375 16.5 3.4375Z" fill="#039BE5"/>
<path d="M18.2682 19.9622H21.6487L22.1794 16.5282H18.2676V14.6513C18.2676 13.2247 18.7337 11.9597 20.0681 11.9597H22.2124V8.96291C21.8357 8.91203 21.0389 8.80066 19.5332 8.80066C16.3893 8.80066 14.5461 10.461 14.5461 14.2436V16.5282H11.3142V19.9622H14.5461V29.4009C15.1862 29.4972 15.8345 29.5625 16.5 29.5625C17.1016 29.5625 17.6887 29.5075 18.2682 29.4291V19.9622Z" fill="white"/>
</svg>
