<svg width="24" height="25" viewBox="0 0 24 25" fill="none" xmlns="http://www.w3.org/2000/svg">
<g clip-path="url(#clip0_31_110)">
<path d="M23.5079 12.9908C23.5079 12.0075 23.4295 11.29 23.2599 10.5459H12.2295V14.9839H18.7041C18.5736 16.0868 17.8687 17.7477 16.3022 18.8638L16.2803 19.0124L19.7679 21.7626L20.0095 21.7871C22.2286 19.701 23.5079 16.6315 23.5079 12.9908Z" fill="#4285F4"/>
<path d="M12.2295 24.6838C15.4015 24.6838 18.0644 23.6208 20.0095 21.7871L16.3022 18.8638C15.3102 19.5681 13.9787 20.0597 12.2295 20.0597C9.12277 20.0597 6.48595 17.9736 5.546 15.0902L5.40822 15.1021L1.78177 17.9589L1.73434 18.0931C3.66627 21.9997 7.63459 24.6838 12.2295 24.6838Z" fill="#34A853"/>
<path d="M5.54612 15.0902C5.29811 14.3461 5.15457 13.5488 5.15457 12.725C5.15457 11.9011 5.29811 11.1039 5.53307 10.3598L5.5265 10.2013L1.85461 7.29858L1.73447 7.35675C0.938237 8.97785 0.481354 10.7983 0.481354 12.725C0.481354 14.6517 0.938237 16.472 1.73447 18.0931L5.54612 15.0902Z" fill="#FBBC05"/>
<path d="M12.2295 5.39027C14.4355 5.39027 15.9236 6.36025 16.7722 7.17085L20.0878 3.87552C18.0515 1.94883 15.4015 0.766235 12.2295 0.766235C7.63459 0.766235 3.66627 3.4503 1.73434 7.3568L5.53294 10.3598C6.48594 7.47643 9.12276 5.39027 12.2295 5.39027Z" fill="#EB4335"/>
</g>
<defs>
<clipPath id="clip0_31_110">
<rect width="23.04" height="24" fill="white" transform="translate(0.480011 0.766235)"/>
</clipPath>
</defs>
</svg>
