<svg width="16" height="18" viewBox="0 0 16 18" fill="none" xmlns="http://www.w3.org/2000/svg">
<path fill-rule="evenodd" clip-rule="evenodd" d="M12.6023 5.1633V6.44108C14.0376 6.88909 15.0833 8.18841 15.0833 9.7403V13.8544C15.0833 15.7756 13.4905 17.3333 11.5269 17.3333H4.474C2.50947 17.3333 0.916672 15.7756 0.916672 13.8544V9.7403C0.916672 8.18841 1.96329 6.88909 3.39774 6.44108V5.1633C3.40621 2.67895 5.46389 0.666626 7.9873 0.666626C10.5446 0.666626 12.6023 2.67895 12.6023 5.1633ZM8.00424 2.11583C9.72321 2.11583 11.1204 3.48222 11.1204 5.1633V6.26138H4.87961V5.14673C4.88808 3.47394 6.28527 2.11583 8.00424 2.11583ZM8.74094 12.7124C8.74094 13.1182 8.41069 13.4411 7.99577 13.4411C7.58932 13.4411 7.25907 13.1182 7.25907 12.7124V10.874C7.25907 10.4765 7.58932 10.1535 7.99577 10.1535C8.41069 10.1535 8.74094 10.4765 8.74094 10.874V12.7124Z" fill="#9E9E9E"/>
</svg>
