<svg width="237" height="200" viewBox="0 0 237 200" fill="none" xmlns="http://www.w3.org/2000/svg">
<g clip-path="url(#clip0_8_759)">
<path d="M193.018 96.5273C193.018 99.3377 192.9 102.12 192.663 104.873C192.477 107.022 192.224 109.152 191.902 111.263C191.56 113.498 191.141 115.705 190.645 117.887V117.889C190.321 119.324 189.965 120.748 189.577 122.16C188.452 126.264 187.052 130.289 185.388 134.206C185.026 135.058 184.652 135.904 184.267 136.745C182.808 139.927 181.176 143.027 179.376 146.03C174.328 154.463 168.028 162.079 160.69 168.616C159.896 169.323 159.091 170.017 158.275 170.7C140.95 185.175 119.083 193.089 96.5089 193.055C43.2078 193.055 0 149.839 0 96.5273C0 43.2161 43.2078 -2.51399e-06 96.5089 -2.51399e-06C118.306 -0.0343781 139.467 7.3451 156.518 20.9268C157.317 21.5603 158.106 22.208 158.885 22.8699C162.687 26.095 166.236 29.6078 169.499 33.3773H169.501C184.7 50.9007 193.052 73.3292 193.018 96.5273Z" fill="#F5F5F5"/>
<path d="M28.4893 113.201C19.2957 107.728 12.3567 97.5003 13.2576 86.8376C21.6628 94.8838 32.6425 99.6969 44.2543 100.426C48.7334 100.69 53.7429 100.518 57.0401 103.562C59.0917 105.456 60.0467 108.308 60.2034 111.096C60.36 113.884 59.8016 116.657 59.2461 119.394L59.4372 120.064C48.7386 120.104 37.6829 118.674 28.4893 113.201Z" fill="#1F222A"/>
<path d="M13.4818 86.8263C17.1654 94.8808 23.2928 101.57 30.9937 105.943C32.6492 106.87 34.4092 107.666 36.2796 108.035C38.1054 108.381 39.9906 108.232 41.7392 107.602C43.3814 107.049 44.997 106.292 46.7453 106.147C48.588 105.994 50.2939 106.705 51.6343 107.95C53.2742 109.474 54.2689 111.496 55.1729 113.508C56.1767 115.741 57.1839 118.077 59.1083 119.683C59.3415 119.878 59.026 120.228 58.7932 120.034C55.4449 117.239 54.8984 112.56 52.222 109.269C50.9731 107.733 49.254 106.565 47.2117 106.596C45.4258 106.623 43.7591 107.402 42.1012 107.977C40.3603 108.581 38.6164 108.865 36.7786 108.599C34.8986 108.327 33.1037 107.598 31.4318 106.718C27.6553 104.693 24.2207 102.087 21.2536 98.9948C17.8477 95.4848 15.0673 91.4179 13.0326 86.9701C12.9068 86.6947 13.3568 86.5527 13.4818 86.8263H13.4818Z" fill="#1F222A"/>
<path d="M28.4312 104.681C27.5222 105.873 26.2189 106.704 24.7541 107.024C23.2894 107.345 21.7584 107.134 20.4347 106.429C20.1674 106.286 20.3777 105.864 20.6454 106.007C21.8768 106.665 23.3029 106.862 24.6663 106.561C26.0297 106.26 27.2406 105.481 28.0804 104.365C28.2632 104.123 28.6129 104.44 28.4311 104.681L28.4312 104.681Z" fill="#1F222A"/>
<path d="M40.9444 107.993C40.5617 104.951 39.0467 102.166 36.7014 100.191C36.4689 99.9959 36.7844 99.6453 37.0167 99.8405C39.4534 101.899 41.0241 104.802 41.4153 107.968C41.4524 108.27 40.9812 108.293 40.9444 107.993V107.993Z" fill="#1F222A"/>
<path d="M18.4325 95.2633C18.8804 94.8752 19.2249 94.3818 19.4351 93.8276C19.6452 93.2734 19.7144 92.6756 19.6364 92.0881C19.5956 91.7869 20.0668 91.7637 20.1074 92.0629C20.1905 92.7125 20.1133 93.3725 19.8825 93.9854C19.6516 94.5982 19.2743 95.1452 18.7833 95.5786C18.7404 95.6233 18.6822 95.65 18.6203 95.6533C18.5584 95.6566 18.4976 95.6363 18.4503 95.5964C18.404 95.5544 18.3762 95.4959 18.3729 95.4335C18.3696 95.3711 18.391 95.31 18.4325 95.2633V95.2633Z" fill="#1F222A"/>
<path d="M43.0166 66.1803C43.0475 66.3676 43.0783 66.555 43.1128 66.7441C43.5409 69.2605 44.1727 71.7381 45.002 74.1522C45.0631 74.3399 45.1279 74.5291 45.1943 74.7146C47.2542 80.5095 50.3718 85.8715 54.3887 90.5281C55.9888 92.3796 57.7275 94.1066 59.5896 95.6943C62.1613 97.8867 65.1242 100.059 66.773 102.89C66.9484 103.183 67.1054 103.487 67.2432 103.8L60.2401 119.779C60.2059 119.807 60.1754 119.837 60.1412 119.866L59.8907 120.516C59.7889 120.441 59.685 120.361 59.5833 120.286C59.5241 120.242 59.4664 120.196 59.4072 120.152C59.3682 120.122 59.3293 120.092 59.2924 120.067C59.2794 120.057 59.2665 120.047 59.2571 120.039C59.2202 120.014 59.1886 119.987 59.1553 119.963C58.5732 119.517 57.9932 119.066 57.4154 118.61C57.4117 118.608 57.4117 118.608 57.4096 118.603C53.0154 115.116 48.8736 111.231 45.453 106.841C45.3501 106.709 45.2435 106.576 45.1438 106.436C43.613 104.449 42.2471 102.34 41.0597 100.13C40.4135 98.9177 39.829 97.6736 39.3085 96.4024C37.97 93.115 37.1568 89.6375 36.8987 86.0974C36.3852 79.0402 38.1341 71.8973 42.6663 66.5829C42.7824 66.4471 42.8969 66.3146 43.0166 66.1803Z" fill="#1F222A"/>
<path d="M43.2036 66.3052C41.2963 74.9545 42.1623 83.9851 45.6786 92.1141C46.4425 93.8511 47.3686 95.5466 48.6397 96.9677C49.8893 98.3435 51.4844 99.3594 53.2593 99.91C54.9039 100.457 56.6495 100.825 58.1327 101.762C59.696 102.75 60.63 104.345 60.9505 106.146C61.3427 108.351 60.9195 110.564 60.4306 112.715C59.8876 115.102 59.2859 117.574 59.8557 120.015C59.9247 120.311 59.4618 120.401 59.3929 120.105C58.4015 115.858 60.782 111.792 60.626 107.553C60.5532 105.575 59.884 103.607 58.2348 102.402C56.7926 101.348 54.9929 100.966 53.3229 100.427C51.5694 99.8609 50.0062 99.0373 48.6987 97.7184C47.3612 96.3693 46.367 94.7064 45.562 92.9966C43.7655 89.1058 42.5919 84.9566 42.0841 80.7012C41.4776 75.8476 41.7057 70.9261 42.7584 66.1495C42.8237 65.8539 43.2685 66.0115 43.2036 66.3052Z" fill="#1F222A"/>
<path d="M44.3923 89.5632C42.9486 89.9681 41.408 89.8465 40.0456 89.2202C38.6833 88.5939 37.5879 87.5036 36.955 86.1441C36.8279 85.8685 37.25 85.658 37.3773 85.9339C37.9643 87.201 38.9847 88.2165 40.2546 88.7972C41.5244 89.3778 42.9599 89.4853 44.302 89.1003C44.5938 89.0169 44.6824 89.4803 44.3923 89.5632H44.3923Z" fill="#1F222A"/>
<path d="M52.3889 99.7426C53.9147 97.0836 54.3822 93.9472 53.6983 90.9589C53.6303 90.6628 54.0933 90.5729 54.1612 90.8686C54.8671 93.9797 54.3739 97.2426 52.7801 100.006C52.628 100.269 52.2377 100.004 52.3889 99.7426Z" fill="#1F222A"/>
<path d="M42.0778 76.023C42.6691 75.9828 43.2412 75.7963 43.7427 75.4803C44.2441 75.1643 44.6593 74.7287 44.9508 74.2126C45.0995 73.9475 45.4897 74.2127 45.342 74.4761C45.0172 75.0448 44.5582 75.5253 44.0049 75.8756C43.4516 76.226 42.821 76.4355 42.1681 76.4859C42.1069 76.4958 42.0443 76.4821 41.9929 76.4475C41.9415 76.4129 41.9053 76.36 41.8915 76.2996C41.8798 76.2383 41.8928 76.1748 41.9277 76.123C41.9626 76.0712 42.0165 76.0353 42.0778 76.023V76.023Z" fill="#1F222A"/>
<path d="M66.8525 22.3722L78.6648 160.676L55.0402 162.452V24.1318C57.8553 22.2687 61.8963 21.9772 66.8525 22.3722Z" fill="#212121"/>
<path d="M125.16 22.3722L113.348 160.676L136.972 162.452V24.1318C134.157 22.2687 130.116 21.9772 125.16 22.3722Z" fill="#212121"/>
<path d="M133.435 168.169H58.3262C57.1219 168.167 55.9672 167.688 55.1156 166.836C54.264 165.985 53.7849 164.83 53.7836 163.625V26.1617C53.785 24.9571 54.264 23.8022 55.1156 22.9504C55.9672 22.0987 57.1219 21.6195 58.3262 21.6182H133.435C134.639 21.6195 135.794 22.0987 136.646 22.9504C137.497 23.8022 137.976 24.9571 137.978 26.1617V163.625C137.976 164.83 137.497 165.985 136.646 166.836C135.794 167.688 134.639 168.167 133.435 168.169ZM58.3262 23.1264C57.5217 23.1273 56.7503 23.4474 56.1814 24.0164C55.6125 24.5854 55.2924 25.3569 55.2916 26.1617V163.625C55.2924 164.43 55.6125 165.201 56.1814 165.77C56.7503 166.34 57.5216 166.66 58.3262 166.661H133.435C134.24 166.66 135.011 166.34 135.58 165.77C136.149 165.201 136.469 164.43 136.47 163.625V26.1617C136.469 25.3569 136.149 24.5854 135.58 24.0164C135.011 23.4474 134.24 23.1273 133.435 23.1264L58.3262 23.1264Z" fill="#212121"/>
<path d="M137.224 44.493H54.5376V46.0013H137.224V44.493Z" fill="#212121"/>
<path d="M137.224 69.6304H54.5376V71.1386H137.224V69.6304Z" fill="#212121"/>
<path d="M81.3703 22.3722H79.8621V90.9971H81.3703V22.3722Z" fill="#212121"/>
<path d="M111.899 22.3722H110.391V90.9971H111.899V22.3722Z" fill="#212121"/>
<path d="M146.648 172.316H47.6261C45.8264 172.316 44.1005 171.601 42.8279 170.328C41.5553 169.056 40.8404 167.329 40.8404 165.529C40.8404 163.729 41.5553 162.003 42.8279 160.73C44.1005 159.457 45.8264 158.742 47.6261 158.742H146.648C148.448 158.742 150.174 159.457 151.447 160.73C152.719 162.003 153.434 163.729 153.434 165.529C153.434 167.329 152.719 169.056 151.447 170.328C150.174 171.601 148.448 172.316 146.648 172.316Z" fill="#212121"/>
<path d="M137.224 87.4779H55.0402V92.5054H137.224V87.4779Z" fill="#212121"/>
<path d="M81.604 103.478L81.4997 103.428C75.8973 100.721 68.5608 100.723 57.7109 103.437L57.5951 103.466L57.5604 103.351C56.4126 99.587 55.1124 95.3237 57.555 93.2262C57.5892 87.0712 62.9872 82.0734 69.6175 82.0734C76.2464 82.0734 81.6437 87.0687 81.6799 93.222C85.3134 96.0006 83.5817 100.107 81.6627 103.378L81.604 103.478Z" fill="#2F2E41"/>
<path d="M116.038 90.2983C115.938 90.7971 115.729 91.2677 115.427 91.6772C115.125 92.0866 114.737 92.4248 114.291 92.668C113.844 92.9112 113.349 93.0534 112.841 93.0847C112.334 93.116 111.825 93.0355 111.352 92.849L91.5533 112.749L89.7868 106.57L109.451 88.0902C109.817 87.3157 110.454 86.7025 111.242 86.3666C112.03 86.0307 112.913 85.9955 113.725 86.2677C114.537 86.5398 115.221 87.1005 115.648 87.8434C116.074 88.5863 116.213 89.4598 116.038 90.2983L116.038 90.2983Z" fill="#FFB6B6"/>
<path d="M67.1059 109.456C67.1059 109.456 65.3096 113.528 69.7419 116.038C74.1741 118.549 89.6651 115.08 92.1787 114.596C94.6922 114.112 104.08 100.06 104.08 100.06L102.753 93.1682L90.3021 103.978L67.1059 109.456Z" fill="#FF6584"/>
<path d="M63.8366 131.971L64.0879 136.747C64.0879 136.747 63.3461 140.978 63.9562 141.891C64.5617 142.799 81.0841 142.914 81.0841 142.914C81.0841 142.914 82.1759 137.028 83.1162 131.875L63.8366 131.971Z" fill="#FFB6B6"/>
<path d="M111.341 195.121L114.795 194.423L113.806 180.469L108.708 181.499L111.341 195.121Z" fill="#FFB6B6"/>
<path d="M116.288 176.961L119.5 175.517L115.334 162.165L110.594 164.297L116.288 176.961Z" fill="#FFB6B6"/>
<path d="M119.086 169.438L113.039 172.862L98.1276 148.896C87.6595 155.95 77.4231 159.328 67.1039 161.13C63.615 161.752 60.0578 161.437 59.388 157.885C59.3567 157.719 59.3317 157.552 59.3131 157.384C58.9011 153.505 63.726 148.532 64.3393 143.786L77.544 142.993L79.1724 145.081L94.4432 135.691C97.5142 133.802 101.553 134.824 103.465 137.972C103.566 138.138 103.66 138.309 103.746 138.483L119.086 169.438Z" fill="#2F2E41"/>
<path d="M115.385 185.56L108.466 186.204L95.9219 160.543C83.4824 162.683 71.7469 163.368 61.5962 160.78C58.1594 159.916 56.0586 156.366 56.9039 152.852C56.9435 152.688 56.9891 152.525 57.041 152.365C58.2559 148.657 61.4359 146.034 63.9413 141.957L82.242 142.235L80.198 149.289L97.9759 146.988C101.551 146.525 104.816 149.114 105.269 152.769C105.293 152.962 105.308 153.156 105.316 153.351L115.385 185.56Z" fill="#2F2E41"/>
<path d="M70.9824 99.8298C75.0865 99.8298 78.4135 96.5022 78.4135 92.3973C78.4135 88.2924 75.0865 84.9647 70.9824 84.9647C66.8783 84.9647 63.5512 88.2924 63.5512 92.3973C63.5512 96.5022 66.8783 99.8298 70.9824 99.8298Z" fill="#FFB6B6"/>
<path d="M66.6259 102.513L73.4395 103.315C73.7269 103.349 73.9965 103.471 74.2108 103.665C74.4252 103.86 74.5736 104.116 74.6354 104.399L75.719 109.358L82.4737 117.314C82.4737 117.314 84.8993 121.863 83.9897 127.019C83.0802 132.174 82.6804 136.005 82.6804 136.005C82.6804 136.005 64.5608 142.8 63.9545 141.89C63.3481 140.98 63.1513 136.848 63.1513 136.848L60.7257 109.858C60.7257 109.858 63.4545 105.309 64.9705 105.309C65.9489 105.276 65.8234 103.074 66.6259 102.513Z" fill="#FF6584"/>
<path d="M82.865 137.664C83.8207 137.664 84.5954 136.734 84.5954 135.587C84.5954 134.441 83.8207 133.511 82.865 133.511C81.9093 133.511 81.1346 134.441 81.1346 135.587C81.1346 136.734 81.9093 137.664 82.865 137.664Z" fill="#9E9E9E"/>
<path d="M109.626 191.528L114.893 188.889L115.885 191.204L122.544 192.551C122.873 192.617 123.172 192.787 123.398 193.036C123.623 193.284 123.764 193.598 123.798 193.932C123.833 194.266 123.759 194.602 123.589 194.891C123.419 195.181 123.161 195.408 122.853 195.54L116.419 198.299L114.328 196.483L114.877 198.96L112.451 200L109.626 191.528Z" fill="#2F2E41"/>
<path d="M114.781 175.85L120 173.118L121.033 175.417L127.715 176.646C128.045 176.706 128.347 176.871 128.577 177.115C128.807 177.36 128.953 177.671 128.993 178.005C129.033 178.338 128.966 178.675 128.801 178.967C128.636 179.26 128.382 179.491 128.076 179.629L121.691 182.5L119.569 180.722L120.161 183.189L117.754 184.271L114.781 175.85Z" fill="#2F2E41"/>
<path d="M66.7367 90.0659C64.7734 90.0691 62.8573 89.4644 61.2513 88.335L61.1977 88.2974V88.232C61.1998 86.3326 61.9552 84.5117 63.298 83.1686C64.6408 81.8255 66.4614 81.07 68.3605 81.0679H71.3764C73.2754 81.07 75.096 81.8255 76.4388 83.1686C77.7816 84.5117 78.537 86.3326 78.5391 88.232C78.5371 88.6667 78.3655 89.0835 78.0608 89.3936C77.7562 89.7036 77.3425 89.8824 76.908 89.892L66.9061 90.0644C66.8497 90.0654 66.793 90.0659 66.7367 90.0659Z" fill="#2F2E41"/>
<path d="M79.0422 86.8562C80.004 86.3008 80.1648 84.7784 79.4013 83.4558C78.6378 82.1332 77.2393 81.5112 76.2775 82.0666C75.3157 82.622 75.1549 84.1444 75.9183 85.467C76.6818 86.7896 78.0804 87.4116 79.0422 86.8562Z" fill="#2F2E41"/>
<path d="M64.0022 85.3808C65.0819 84.3008 65.3206 82.7887 64.5354 82.0032C63.7501 81.2178 62.2382 81.4566 61.1585 82.5365C60.0788 83.6165 59.84 85.1286 60.6253 85.9141C61.4106 86.6995 62.9225 86.4607 64.0022 85.3808Z" fill="#2F2E41"/>
<path d="M129.769 153.338H122.352C122.184 153.337 122.019 153.373 121.867 153.444C121.715 153.514 121.58 153.616 121.472 153.744C121.199 153.694 120.917 153.709 120.651 153.789C120.384 153.869 120.14 154.01 119.939 154.203C119.738 154.395 119.585 154.632 119.494 154.895C119.402 155.157 119.374 155.438 119.412 155.714C119.449 155.989 119.552 156.252 119.711 156.48C119.87 156.708 120.081 156.896 120.326 157.027C120.572 157.158 120.845 157.229 121.123 157.234C121.401 157.239 121.676 157.178 121.926 157.056L122.541 159.055C122.614 159.292 122.761 159.499 122.961 159.647C123.16 159.794 123.401 159.873 123.649 159.873H128.472C128.719 159.873 128.961 159.794 129.16 159.647C129.359 159.499 129.506 159.292 129.579 159.055L130.877 154.838C130.93 154.664 130.942 154.481 130.911 154.302C130.881 154.123 130.809 153.954 130.701 153.808C130.593 153.662 130.453 153.544 130.291 153.462C130.129 153.38 129.95 153.338 129.769 153.338ZM121.159 156.731C120.826 156.731 120.506 156.599 120.271 156.363C120.035 156.127 119.903 155.808 119.903 155.474C119.903 155.141 120.035 154.821 120.271 154.586C120.506 154.35 120.826 154.217 121.159 154.217C121.182 154.217 121.204 154.223 121.226 154.224C121.176 154.427 121.182 154.639 121.244 154.838L121.775 156.563C121.588 156.672 121.376 156.73 121.159 156.731Z" fill="#3F3D56"/>
<path d="M96.6478 147.881C96.1412 147.928 95.6306 147.863 95.1518 147.691C94.6731 147.519 94.2378 147.245 93.8767 146.886C93.5156 146.528 93.2374 146.095 93.0618 145.617C92.8862 145.14 92.8173 144.63 92.8602 144.123L68.12 130.862L73.5313 127.397L96.8726 140.936C97.7193 141.064 98.4895 141.499 99.0373 142.157C99.585 142.815 99.8722 143.652 99.8445 144.508C99.8168 145.364 99.4761 146.181 98.8869 146.802C98.2977 147.424 97.501 147.808 96.6478 147.881Z" fill="#FFB6B6"/>
<path d="M64.2595 106.493C64.2595 106.493 59.8446 105.94 58.7115 110.908C57.5784 115.875 65.3454 129.722 66.5305 131.991C67.7156 134.261 83.8677 139.224 83.8677 139.224L90.0872 135.975L76.1611 127.147L64.2595 106.493Z" fill="#FF6584"/>
<path d="M95.3779 85.9697H96.8859C97.6191 85.9697 98.3223 86.2611 98.8407 86.7796C99.3592 87.2982 99.6505 88.0015 99.6505 88.7348H92.6134C92.6134 88.0015 92.9046 87.2982 93.4231 86.7796C93.9415 86.2611 94.6447 85.9697 95.3779 85.9697Z" fill="#212121"/>
<path d="M47.5612 34.3792C55.8119 34.3792 62.5004 27.6894 62.5004 19.4371C62.5004 11.1848 55.8119 4.495 47.5612 4.495C39.3105 4.495 32.6219 11.1848 32.6219 19.4371C32.6219 27.6894 39.3105 34.3792 47.5612 34.3792Z" fill="#FF6584"/>
<path d="M93.3016 18.6584C89.3479 14.5101 84.7562 10.7258 79.3204 8.72605C77.8063 8.16664 76.2362 7.77203 74.6376 7.54904C74.6247 7.54729 74.6126 7.54989 74.5998 7.54885C74.5738 7.54215 74.5474 7.53697 74.5208 7.53334C72.2849 7.24845 70.0154 7.38549 67.83 7.93736C66.7612 8.2056 65.7187 8.56887 64.7146 9.02283C63.7071 9.51447 62.7308 10.0679 61.7914 10.6798C59.803 11.8703 57.6138 12.6871 55.3317 13.0901C54.1862 13.2964 53.026 13.4103 51.8622 13.4307C50.8525 13.451 49.9002 13.4861 48.9435 13.8509C47.9216 14.2353 47.0036 14.8532 46.2629 15.6555C45.5221 16.4577 44.9791 17.422 44.6771 18.4714C44.6538 18.5649 44.6608 18.6633 44.6971 18.7525C44.7334 18.8417 44.7971 18.9171 44.879 18.9677C45.1378 19.1531 45.3901 19.3634 45.662 19.5286C45.9039 19.6393 46.1622 19.7098 46.4268 19.7372C46.8591 19.8285 47.2919 19.917 47.7253 20.0029C49.3219 20.3193 50.9252 20.5994 52.5351 20.8432C55.7926 21.3364 59.0677 21.6838 62.3604 21.8855C68.9567 22.2851 75.5756 22.0861 82.136 21.291C85.823 20.8444 89.4849 20.2109 93.1077 19.393C93.181 19.3715 93.2476 19.3315 93.3009 19.2767C93.3542 19.222 93.3925 19.1544 93.412 19.0805C93.4315 19.0066 93.4316 18.9289 93.4123 18.8549C93.3929 18.781 93.3548 18.7133 93.3016 18.6584Z" fill="#1F222A"/>
<path d="M48.2702 28.6489C46.7561 28.0895 45.1861 27.6949 43.5874 27.4719C43.5745 27.4701 43.5624 27.4727 43.5496 27.4717C43.5236 27.465 43.4972 27.4598 43.4706 27.4562C41.2347 27.1713 38.9652 27.3083 36.7798 27.8602C35.7111 28.1285 34.6685 28.4917 33.6645 28.9457C32.6569 29.4373 31.6806 29.9907 30.7412 30.6027C28.7528 31.7931 26.5636 32.61 24.2815 33.013C23.136 33.2192 21.9758 33.3331 20.8121 33.3536C19.8023 33.3738 18.8501 33.4089 17.8934 33.7738C16.8714 34.1581 15.9534 34.7761 15.2127 35.5783C14.4719 36.3805 13.9289 37.3448 13.6269 38.3942C13.6036 38.4877 13.6106 38.5861 13.6469 38.6753C13.6832 38.7645 13.7469 38.8399 13.8288 38.8905C14.0876 39.0759 14.3399 39.2863 14.6118 39.4514C14.8537 39.5622 15.112 39.6326 15.3766 39.6601C15.8089 39.7513 16.2418 39.8399 16.6752 39.9258C18.2718 40.2422 19.875 40.5223 21.4849 40.766C24.7424 41.2592 28.0176 41.6067 31.3103 41.8083C37.9065 42.2079 44.5254 42.009 51.0858 41.2139C54.7728 40.7672 58.4347 40.1337 62.0575 39.3158C62.1308 39.2944 62.1974 39.2543 62.2507 39.1996C62.3041 39.1448 62.3423 39.0772 62.3618 39.0033C62.3813 38.9294 62.3814 38.8517 62.3621 38.7778C62.3427 38.7038 62.3046 38.6361 62.2514 38.5813C58.2977 34.433 53.706 30.6487 48.2702 28.6489Z" fill="#1F222A"/>
<path d="M156.003 140.04L144.515 124.945L135.45 130.071L154.659 152.886L156.003 140.04Z" fill="#3F3D56"/>
<path d="M182.467 115.501C182.722 121.827 183.702 128.103 185.388 134.206C185.026 135.058 184.652 135.904 184.267 136.745C182.808 139.927 181.176 143.027 179.376 146.03C174.328 154.463 168.028 162.079 160.69 168.616C159.896 169.323 159.091 170.017 158.275 170.7C153.623 164.285 151.112 157.206 150.119 149.922C149.993 148.997 149.89 148.061 149.812 147.131V147.126C149.622 144.866 149.561 142.597 149.629 140.329C149.632 140.148 149.637 139.965 149.644 139.781C149.732 137.358 149.951 134.93 150.28 132.524V132.522C150.318 132.245 150.355 131.969 150.398 131.692C150.519 130.862 150.654 130.033 150.803 129.208C151.666 124.453 152.87 119.766 154.407 115.184V115.182C154.449 115.049 154.492 114.918 154.54 114.787C154.706 114.289 154.874 113.797 155.048 113.304C155.058 113.265 155.072 113.228 155.088 113.191C155.311 112.547 155.54 111.909 155.774 111.275C155.837 111.1 155.902 110.924 155.97 110.748C156.234 110.041 156.503 109.34 156.777 108.649C156.862 108.427 156.95 108.206 157.038 107.988C157.106 107.819 157.171 107.651 157.242 107.485V107.482C157.641 106.494 158.046 105.526 158.456 104.576C159.604 101.907 160.785 99.3956 161.936 97.0804L161.939 97.0779C166.717 87.493 171.06 81.269 171.06 81.269L187.368 86.5479C185.423 89.9992 183.917 95.0895 183.093 101.095C182.458 105.868 182.248 110.688 182.467 115.499L182.467 115.501Z" fill="black"/>
<path d="M155.362 113.965C155.266 113.741 155.158 113.523 155.048 113.304C154.474 112.194 153.736 111.177 152.859 110.287C152.728 110.154 152.592 110.021 152.451 109.895C150.938 108.501 149.097 107.51 147.099 107.016C145.101 106.521 143.011 106.538 141.021 107.065L141.011 107.07L140.936 107.09L140.953 107.175C141.029 107.574 141.138 107.965 141.28 108.344C141.318 108.447 141.36 108.545 141.403 108.644C141.421 108.689 141.443 108.729 141.463 108.774C141.463 108.774 141.461 108.777 141.466 108.777C141.466 108.779 141.468 108.782 141.468 108.784C141.516 108.877 141.561 108.973 141.612 109.063C141.509 108.965 141.411 108.865 141.315 108.762C141.222 108.666 141.137 108.566 141.051 108.465C140.758 108.123 140.494 107.759 140.26 107.374L140.219 107.306L140.149 107.334C139.201 107.663 138.296 108.106 137.455 108.654L137.364 108.714C136.722 109.136 135.999 109.417 135.24 109.541C134.482 109.665 133.707 109.628 132.964 109.433C131.792 109.131 130.571 109.076 129.377 109.271C128.184 109.466 127.044 109.907 126.03 110.567C125.358 111.005 124.75 111.534 124.225 112.14C124.18 112.193 124.135 112.248 124.089 112.301C123.994 112.417 123.903 112.535 123.815 112.655C122.871 113.918 122.291 115.417 122.139 116.987L122.134 117.044L122.182 117.077C123.032 117.66 123.994 118.061 125.007 118.254C124.371 118.342 123.726 118.358 123.087 118.301H123.084C122.794 118.277 122.505 118.237 122.219 118.181L122.167 118.171H122.164L122.099 118.158L122.109 118.279C122.184 119.815 122.667 121.303 123.509 122.59L123.534 122.625C123.543 122.638 123.552 122.651 123.559 122.665C123.916 123.211 124.212 123.793 124.444 124.402C125.031 125.916 125.161 127.569 124.816 129.156C124.425 130.853 124.555 132.628 125.188 134.25C125.821 135.872 126.928 137.266 128.364 138.25C129.626 139.119 131.097 139.635 132.624 139.746C132.833 139.764 133.044 139.774 133.255 139.774C134.464 139.777 135.66 139.528 136.766 139.042L136.806 139.027L136.816 138.982C137.029 138.295 137.328 137.638 137.706 137.026C137.582 137.508 137.52 138.004 137.52 138.502V138.668L137.663 138.585C137.787 138.512 137.912 138.434 138.025 138.361C138.704 137.917 139.319 137.383 139.852 136.772C140.061 136.531 140.272 136.297 140.493 136.063L140.496 136.061C140.926 135.603 141.38 135.156 141.853 134.729C142.858 133.826 143.934 133.004 145.07 132.273C146.205 131.544 147.392 130.898 148.621 130.342H148.624C148.762 130.277 148.903 130.214 149.041 130.154C149.653 129.887 150.242 129.571 150.803 129.208C150.823 129.196 150.84 129.186 150.858 129.173C153.288 127.582 155.074 125.18 155.898 122.395C156.723 119.61 156.533 116.623 155.362 113.965L155.362 113.965Z" fill="#FF6584"/>
<path opacity="0.15" d="M125.23 132.725C125.161 133.03 125.109 133.339 125.074 133.651C124.606 132.172 124.538 130.595 124.878 129.082C124.93 128.85 124.969 128.616 125 128.38C125.464 129.782 125.544 131.282 125.23 132.725Z" fill="black"/>
<path opacity="0.15" d="M125.42 121.821C124.676 121.924 123.921 121.928 123.175 121.831C122.98 121.463 122.811 121.081 122.671 120.689C123.501 121.249 124.436 121.634 125.42 121.821Z" fill="black"/>
<path opacity="0.15" d="M123.116 118.221C122.841 118.923 122.658 119.659 122.572 120.409C122.343 119.695 122.207 118.954 122.169 118.205L122.163 118.084L122.282 118.107C122.558 118.159 122.836 118.197 123.116 118.221Z" fill="black"/>
<path opacity="0.15" d="M126.094 110.492C127.107 109.832 128.247 109.39 129.44 109.194C130.633 108.999 131.854 109.054 133.025 109.357C133.768 109.553 134.544 109.591 135.303 109.467C136.061 109.344 136.785 109.061 137.428 108.639L137.518 108.579C138.359 108.03 139.263 107.586 140.211 107.256L140.283 107.231L140.323 107.297C140.698 107.917 141.152 108.485 141.674 108.987C141.357 108.396 141.135 107.759 141.016 107.099L140.999 107.012L141.085 106.99C142.951 106.496 144.907 106.45 146.794 106.856C148.681 107.262 150.446 108.109 151.943 109.327C153.441 110.545 154.629 112.1 155.412 113.865C156.194 115.63 156.548 117.555 156.445 119.483C156.049 117.911 155.345 116.434 154.375 115.136C153.404 113.838 152.185 112.746 150.789 111.923C149.393 111.1 147.848 110.562 146.242 110.34C144.637 110.119 143.004 110.218 141.437 110.633L141.351 110.655L141.368 110.742C141.487 111.402 141.709 112.04 142.026 112.63C141.504 112.128 141.05 111.56 140.675 110.94L140.636 110.874L140.563 110.899C139.615 111.229 138.711 111.673 137.871 112.222L137.78 112.282C137.137 112.704 136.413 112.987 135.655 113.11C134.896 113.234 134.12 113.196 133.377 113C131.431 112.495 129.371 112.681 127.547 113.525C125.722 114.37 124.248 115.821 123.374 117.632C122.985 117.445 122.608 117.234 122.245 117.001L122.195 116.97L122.201 116.912C122.326 115.618 122.741 114.369 123.415 113.257C124.089 112.146 125.005 111.201 126.094 110.492Z" fill="black"/>
<path d="M219.528 46.2627L219.289 46.1043L219.115 46.3306C217.773 48.0207 216.706 49.9115 215.951 51.9337C216.055 49.6041 216.463 47.298 217.163 45.0737L217.238 44.8399L217.022 44.7167C214.21 43.1241 211.214 41.8815 208.1 41.0165L207.761 40.926C205.374 40.2711 203.153 39.1204 201.241 37.549C199.329 35.9776 197.769 34.0208 196.665 31.8062C194.097 26.7236 190.04 22.5451 185.037 19.8282C180.033 17.1114 174.32 15.9854 168.659 16.6006H168.657C168.597 16.6057 168.534 16.6132 168.473 16.6207C168.37 16.6308 168.27 16.6434 168.169 16.6559C167.963 16.6836 167.762 16.7112 167.561 16.7414C167.39 16.7665 167.217 16.7942 167.046 16.8244C166.955 16.8369 166.867 16.852 166.779 16.8696C166.691 16.8847 166.601 16.8998 166.513 16.9174H166.511C164.823 17.2366 163.169 17.7121 161.569 18.3376H161.567V18.3401L161.162 18.4985C160.745 18.6694 160.331 18.8504 159.921 19.0415C159.828 19.0842 159.737 19.1294 159.644 19.1722C159.619 19.1847 159.592 19.1973 159.566 19.2124C159.303 19.3381 159.041 19.4688 158.782 19.607C158.745 19.6246 158.707 19.6448 158.669 19.6649L158.428 19.7931C157.898 20.0796 157.377 20.3838 156.865 20.7055C156.822 20.7307 156.782 20.7558 156.739 20.7835C156.694 20.8136 156.646 20.8438 156.601 20.874C156.573 20.889 156.545 20.9092 156.518 20.9268C156.44 20.9745 156.365 21.0248 156.289 21.0776C156.138 21.1756 155.988 21.2762 155.839 21.3792C155.686 21.4823 155.535 21.5904 155.384 21.6985L155.234 21.8066L155.261 21.9926C155.286 22.1459 155.309 22.2993 155.337 22.4501C155.362 22.6009 155.387 22.7492 155.415 22.8975C155.457 23.1464 155.505 23.3927 155.553 23.6315C155.585 23.7899 155.616 23.9457 155.651 24.0991C155.683 24.2575 155.719 24.4158 155.756 24.5742C155.829 24.901 155.907 25.2177 155.99 25.5294C156.03 25.6853 156.073 25.8411 156.118 25.9944C156.143 26.0874 156.168 26.1805 156.196 26.271C156.216 26.3338 156.236 26.3966 156.256 26.4595C156.261 26.4796 156.267 26.5022 156.274 26.5248C156.28 26.5461 156.286 26.5671 156.294 26.5877C156.322 26.6807 156.349 26.7712 156.377 26.8592C156.392 26.9069 156.407 26.9547 156.425 26.9999C156.46 27.108 156.498 27.2186 156.535 27.3242C156.576 27.4449 156.618 27.5655 156.661 27.6837C156.671 27.7138 156.681 27.7415 156.691 27.7717C156.699 27.7943 156.706 27.8169 156.716 27.8395C156.726 27.8647 156.736 27.8923 156.747 27.9174C156.789 28.0306 156.832 28.1462 156.877 28.2593C156.892 28.2995 156.907 28.3423 156.925 28.3825C157.332 29.4065 157.833 30.391 158.42 31.3236C157.769 30.7655 157.143 30.1739 156.54 29.5489C155.61 28.5824 154.754 27.548 153.977 26.4545C153.914 26.369 153.851 26.281 153.793 26.193C153.675 26.0246 153.56 25.8562 153.447 25.6853C153.326 25.5093 153.21 25.3258 153.097 25.1448C153.022 25.0241 152.947 24.901 152.874 24.7803C152.801 24.6647 152.733 24.5516 152.668 24.4359L152.472 24.0991H152.469V24.1016L152.193 24.3731C152.082 24.4812 151.971 24.5893 151.863 24.6973C148.485 28.0967 146.039 32.3081 144.758 36.9267L144.721 37.0649L144.683 37.2082C144.61 37.4646 144.537 37.7135 144.459 37.9673V37.9699C144.384 38.2212 144.303 38.4726 144.218 38.7189C144.14 38.9527 144.06 39.184 143.974 39.4152C143.947 39.4932 143.916 39.5711 143.884 39.649C143.831 39.7999 143.773 39.9482 143.715 40.099C143.688 40.1669 143.66 40.2372 143.632 40.3051C143.565 40.471 143.497 40.6369 143.429 40.8003C143.419 40.8255 143.406 40.8531 143.394 40.8782C143.374 40.9285 143.351 40.9788 143.331 41.0266C143.278 41.1472 143.223 41.2704 143.17 41.391C143.132 41.469 143.097 41.5494 143.062 41.6273C143.047 41.6625 143.029 41.6977 143.014 41.7329C142.921 41.934 142.826 42.1326 142.725 42.3287C142.612 42.5599 142.496 42.7912 142.373 43.0174C142.265 43.2286 142.152 43.4347 142.034 43.6408C141.83 44.0053 141.617 44.3673 141.396 44.7192C141.31 44.855 141.225 44.9907 141.137 45.1265C141.117 45.1591 141.097 45.1918 141.076 45.222C141.004 45.3401 140.928 45.4533 140.85 45.5689C140.797 45.6468 140.745 45.7247 140.692 45.8001C140.604 45.9359 140.511 46.0666 140.415 46.1948C140.39 46.235 140.363 46.2727 140.335 46.3104C140.194 46.5065 140.054 46.6975 139.91 46.8886C139.905 46.8911 139.905 46.8936 139.903 46.8961C139.898 46.8961 139.898 46.8986 139.895 46.9012C139.832 46.9841 139.77 47.0671 139.704 47.1475C139.619 47.2657 139.526 47.3813 139.433 47.4944C139.282 47.6854 139.124 47.879 138.963 48.0675C138.958 48.0726 138.955 48.0776 138.95 48.0801C138.117 49.0587 137.215 49.9761 136.251 50.8251C136.233 50.8402 136.221 50.8553 136.203 50.8678C136.068 50.986 135.932 51.1041 135.791 51.2198C135.733 51.2675 135.675 51.3153 135.618 51.363C135.522 51.4435 135.424 51.5239 135.329 51.5968C135.317 51.6084 135.305 51.6185 135.291 51.627C135.205 51.6974 135.123 51.7627 135.037 51.8281C134.934 51.911 134.831 51.989 134.725 52.0669C134.228 52.4439 133.717 52.8001 133.192 53.1352C133.114 53.188 133.032 53.2408 132.951 53.2911C132.903 53.3212 132.856 53.3514 132.81 53.3765C132.619 53.4947 132.428 53.6103 132.237 53.7209C132.046 53.834 131.85 53.9421 131.657 54.0477C131.242 54.2739 130.832 54.5102 130.433 54.7566C130.232 54.8823 130.031 55.008 129.832 55.1362C129.043 55.649 128.283 56.1978 127.553 56.7826C126.822 57.3679 126.122 57.9895 125.454 58.6453C125.371 58.7258 125.288 58.8087 125.205 58.8942C125.039 59.0576 124.879 59.2235 124.725 59.3894C124.479 59.6433 124.243 59.9047 124.009 60.1686C122.776 61.5674 121.685 63.0847 120.752 64.6984C120.283 65.5042 119.857 66.334 119.475 67.1845C119.186 67.8204 118.922 68.4715 118.683 69.1301C118.525 69.57 118.377 70.0141 118.239 70.4624C118.171 70.6861 118.105 70.9123 118.042 71.1386C117.829 71.9052 117.65 72.6795 117.505 73.4562C117.387 74.0796 117.291 74.7039 117.218 75.329C117.18 75.6432 117.15 75.9574 117.123 76.2691C117.058 77.0352 117.025 77.8021 117.023 78.5697C117.019 80.8726 117.299 83.1672 117.856 85.4015C117.98 85.8942 118.116 86.3844 118.266 86.872C118.342 87.1158 118.422 87.3572 118.502 87.5985C118.706 88.2018 118.931 88.7992 119.178 89.3908C119.327 89.7452 119.483 90.0971 119.646 90.4465C120.684 92.6678 122.009 94.7434 123.587 96.6203C123.846 96.9295 124.113 97.2336 124.388 97.5328C124.391 97.5328 124.388 97.5353 124.388 97.5353C125.072 98.2813 125.796 98.9896 126.557 99.6569H126.56C126.864 99.9258 127.173 100.186 127.487 100.439C127.49 100.436 127.49 100.439 127.49 100.439C127.806 100.695 128.126 100.941 128.452 101.18C128.616 101.298 128.782 101.416 128.95 101.535C129.279 101.768 129.615 101.994 129.958 102.211H129.96C130.302 102.432 130.649 102.643 131.001 102.844C131.707 103.249 132.431 103.629 133.175 103.973L133.3 104.031L133.429 103.973C134.621 103.436 135.851 102.985 137.108 102.623C137.384 102.543 137.663 102.47 137.94 102.399C138.639 102.226 139.342 102.08 140.051 101.962C139.36 102.308 138.694 102.701 138.055 103.136C137.56 103.47 137.073 103.835 136.583 104.237C136.419 104.37 136.256 104.508 136.093 104.649L135.685 105.001L136.196 105.169C136.382 105.23 136.568 105.29 136.754 105.345C137.007 105.426 137.259 105.499 137.505 105.567C138.043 105.717 138.584 105.851 139.129 105.966C139.262 105.994 139.393 106.022 139.526 106.049C139.785 106.1 140.046 106.15 140.307 106.195C140.318 106.198 140.329 106.199 140.34 106.2C140.611 106.245 140.885 106.288 141.157 106.326C141.662 106.399 142.167 106.457 142.672 106.499C142.728 106.507 142.783 106.509 142.841 106.512C142.964 106.522 143.085 106.532 143.208 106.539C143.479 106.557 143.753 106.57 144.027 106.58C144.047 106.58 144.065 106.582 144.085 106.582C144.223 106.587 144.361 106.592 144.499 106.595C144.499 106.595 144.499 106.597 144.502 106.595C144.64 106.597 144.778 106.6 144.917 106.6H145.681C145.824 106.6 145.967 106.602 146.113 106.602C146.314 106.602 146.518 106.605 146.719 106.607C146.771 106.607 146.827 106.61 146.882 106.61C147.204 106.615 147.525 106.622 147.847 106.63C147.867 106.63 147.887 106.632 147.907 106.632C148.229 106.643 148.551 106.653 148.873 106.668C148.943 106.67 149.013 106.673 149.086 106.678C149.395 106.69 149.704 106.705 150.014 106.723C150.102 106.728 150.192 106.736 150.282 106.741C150.516 106.753 150.752 106.768 150.986 106.786C151.124 106.793 151.26 106.803 151.398 106.816C151.956 106.859 152.512 106.906 153.07 106.962C153.256 106.977 153.442 106.997 153.628 107.017C154.125 107.07 154.625 107.128 155.126 107.191C155.349 107.216 155.573 107.246 155.797 107.276C155.822 107.278 155.847 107.281 155.872 107.286C156.148 107.324 156.422 107.361 156.699 107.402C156.88 107.427 157.061 107.454 157.242 107.482C157.428 107.51 157.614 107.537 157.8 107.57C157.9 107.585 158.001 107.603 158.104 107.62C158.345 107.658 158.589 107.698 158.833 107.744C158.855 107.746 158.876 107.749 158.898 107.754C159.416 107.844 159.936 107.94 160.454 108.043C160.758 108.1 161.059 108.161 161.361 108.224C161.597 108.271 161.833 108.322 162.07 108.372C162.11 108.38 162.15 108.39 162.19 108.4C162.199 108.402 162.209 108.404 162.218 108.405C162.575 108.483 162.934 108.563 163.291 108.648C164.53 108.935 165.767 109.253 167.003 109.604C167.287 109.682 167.571 109.765 167.855 109.848C167.976 109.883 168.094 109.918 168.212 109.953C168.458 110.026 168.702 110.099 168.948 110.177C169.165 110.242 169.383 110.31 169.599 110.38C169.735 110.423 169.871 110.466 170.006 110.511C170.218 110.577 170.429 110.644 170.637 110.717C170.816 110.773 170.992 110.83 171.168 110.893C171.419 110.976 171.673 111.062 171.924 111.152C171.997 111.177 172.072 111.202 172.145 111.23C172.452 111.336 172.758 111.444 173.065 111.557C173.364 111.665 173.663 111.776 173.96 111.886C174.166 111.964 174.372 112.04 174.576 112.12C174.804 112.208 175.033 112.296 175.259 112.386C175.586 112.515 175.915 112.645 176.242 112.779C176.543 112.899 176.843 113.022 177.144 113.151C177.199 113.173 177.257 113.196 177.313 113.221C177.574 113.329 177.835 113.442 178.094 113.555C178.263 113.626 178.428 113.699 178.594 113.771C179.318 114.088 180.041 114.416 180.763 114.754H180.766C181.218 114.968 181.678 115.172 182.14 115.365C182.249 115.41 182.357 115.456 182.467 115.498C182.651 115.576 182.837 115.649 183.023 115.725C183.143 115.772 183.264 115.82 183.387 115.865C183.565 115.936 183.746 116.004 183.927 116.069C184.118 116.139 184.307 116.21 184.5 116.275C184.568 116.3 184.636 116.323 184.707 116.348C184.93 116.423 185.154 116.499 185.38 116.572C185.403 116.579 185.425 116.587 185.45 116.594C185.687 116.67 185.923 116.745 186.162 116.816C186.181 116.823 186.2 116.829 186.219 116.833C186.476 116.911 186.737 116.987 186.996 117.059C187.378 117.165 187.763 117.266 188.147 117.359C188.218 117.376 188.288 117.394 188.358 117.409C188.564 117.459 188.768 117.507 188.974 117.552C189.193 117.602 189.414 117.648 189.632 117.693C189.854 117.738 190.075 117.783 190.293 117.824C190.412 117.846 190.53 117.869 190.645 117.889L190.954 117.942C191.168 117.979 191.382 118.012 191.598 118.047C191.604 118.047 191.61 118.048 191.615 118.05C191.859 118.088 192.101 118.123 192.344 118.153C192.578 118.186 192.812 118.213 193.045 118.241C193.093 118.246 193.144 118.251 193.194 118.256C193.387 118.279 193.581 118.301 193.774 118.319C193.83 118.324 193.885 118.329 193.94 118.334C194.131 118.352 194.322 118.369 194.513 118.382C194.552 118.387 194.59 118.389 194.629 118.389C194.8 118.404 194.971 118.417 195.142 118.424C195.262 118.434 195.38 118.439 195.501 118.447C195.564 118.45 195.624 118.452 195.687 118.455C195.853 118.465 196.019 118.47 196.187 118.475C196.391 118.482 196.594 118.487 196.795 118.492C197.039 118.497 197.285 118.5 197.529 118.5H197.534C197.773 118.5 198.014 118.497 198.253 118.492H198.343L198.607 118.485C198.743 118.482 198.879 118.477 199.012 118.472C199.268 118.462 199.522 118.45 199.776 118.434C199.877 118.429 199.98 118.422 200.08 118.417C200.125 118.414 200.173 118.409 200.218 118.407C200.377 118.397 200.533 118.387 200.691 118.374C200.854 118.362 201.02 118.346 201.183 118.329C201.395 118.309 201.606 118.286 201.817 118.264C201.983 118.246 202.149 118.226 202.312 118.206C202.334 118.204 202.356 118.2 202.377 118.196C202.536 118.178 202.694 118.158 202.85 118.135C203.036 118.11 203.219 118.083 203.403 118.055C203.423 118.052 203.44 118.05 203.46 118.047C203.777 117.997 204.096 117.947 204.415 117.889C204.75 117.829 205.084 117.763 205.416 117.695C205.539 117.67 205.66 117.643 205.783 117.618C205.851 117.602 205.921 117.59 205.986 117.575C206.089 117.552 206.19 117.53 206.29 117.504C206.308 117.502 206.328 117.497 206.346 117.494C206.486 117.464 206.625 117.429 206.765 117.394C207.047 117.326 207.323 117.256 207.6 117.18C207.723 117.15 207.846 117.117 207.964 117.085C207.999 117.075 208.035 117.064 208.067 117.054C208.577 116.911 209.083 116.759 209.585 116.599C209.806 116.529 210.025 116.456 210.244 116.378C210.714 116.217 211.179 116.048 211.641 115.87C211.764 115.825 211.887 115.775 212.011 115.727C212.192 115.654 212.372 115.581 212.551 115.508C212.712 115.441 212.873 115.373 213.036 115.302C213.116 115.27 213.197 115.234 213.277 115.199C213.519 115.094 213.76 114.986 213.999 114.878C214.159 114.802 214.318 114.729 214.476 114.654C214.727 114.533 214.976 114.41 215.225 114.287C215.288 114.254 215.348 114.221 215.408 114.191C215.567 114.111 215.725 114.028 215.886 113.947C216.14 113.812 216.394 113.676 216.645 113.535C216.73 113.49 216.813 113.442 216.899 113.394C217.175 113.239 217.449 113.08 217.721 112.919C218.321 112.56 218.914 112.185 219.498 111.793C219.643 111.698 219.789 111.597 219.932 111.499C220.204 111.313 220.47 111.122 220.737 110.931C220.764 110.911 220.789 110.891 220.817 110.873C220.95 110.775 221.083 110.677 221.217 110.577C221.493 110.368 221.767 110.157 222.041 109.941C222.046 109.938 222.054 109.931 222.061 109.925C222.184 109.827 222.307 109.729 222.428 109.631C222.802 109.327 223.172 109.018 223.534 108.699C223.712 108.545 223.888 108.387 224.062 108.229C224.192 108.111 224.323 107.992 224.451 107.872C224.71 107.628 224.964 107.387 225.215 107.14C225.341 107.02 225.464 106.894 225.59 106.768C225.713 106.643 225.838 106.517 225.962 106.389C226.004 106.346 226.047 106.301 226.09 106.255C226.215 106.122 226.341 105.986 226.467 105.853C226.575 105.738 226.68 105.617 226.788 105.496C226.969 105.295 227.153 105.094 227.331 104.89C227.341 104.879 227.351 104.868 227.361 104.858C227.372 104.845 227.382 104.835 227.389 104.825H227.387C231.04 100.6 233.754 95.6469 235.35 90.2939C236.946 84.9409 237.387 79.3099 236.644 73.7736C235.901 68.2373 233.991 62.922 231.04 58.1793C228.09 53.4367 224.165 49.3748 219.528 46.2627Z" fill="#FF6584"/>
<g opacity="0.15">
<path opacity="0.15" d="M168.658 16.5988C169.159 18.3987 169.913 20.1184 170.897 21.7066C169.249 20.2913 167.777 18.6837 166.512 16.9182C167.223 16.7838 167.938 16.6773 168.658 16.5988Z" fill="#FF6584"/>
<path opacity="0.15" d="M144.134 44.4351C142.274 45.4505 140.534 46.6733 138.949 48.0801C141.626 44.9148 143.582 41.2051 144.682 37.2084C144.695 37.1603 144.708 37.112 144.721 37.0639L144.759 36.9279C146.081 32.1577 148.646 27.8243 152.191 24.3709L152.47 24.0992L152.667 24.435C153.754 26.2835 155.054 27.9977 156.542 29.542C154.263 35.9756 149.827 41.3302 144.134 44.4351Z" fill="#FF6584"/>
<path opacity="0.15" d="M157.235 27.3128L157.198 27.4488C157.185 27.4969 157.171 27.5452 157.158 27.5932C157.084 27.8578 157.006 28.1203 156.926 28.3817C156.131 26.322 155.572 24.1786 155.262 21.9927L155.232 21.8073L155.385 21.6983C157.297 20.3238 159.374 19.1944 161.568 18.3365C159.599 21.0455 158.131 24.0857 157.235 27.3128Z" fill="#FF6584"/>
<path opacity="0.15" d="M131.658 54.0501C133.304 53.1489 134.845 52.0671 136.251 50.8248C133.441 54.0974 131.427 57.9763 130.366 62.1578C129.305 66.3392 129.227 70.7095 130.137 74.9262C131.048 79.143 132.922 83.0916 135.613 86.4627C138.305 89.8338 141.74 92.5358 145.65 94.3569L145.777 94.4156L145.904 94.3583C148.015 93.404 150.242 92.7277 152.528 92.3463C151.101 93.0732 149.771 93.9763 148.569 95.0344L148.163 95.386L148.673 95.5544C149.113 95.7001 149.554 95.8341 149.982 95.9529C152.497 96.6536 155.097 97.0016 157.708 96.9869C169.571 96.9109 181.526 99.654 193.241 105.14C195.25 106.079 197.334 106.85 199.471 107.443C208.784 110.036 218.726 109.103 227.394 104.823C222.507 110.476 216.117 114.626 208.966 116.792C201.815 118.958 194.196 119.05 186.995 117.058C184.858 116.465 182.774 115.694 180.765 114.755C169.05 109.269 157.095 106.526 145.232 106.602C142.621 106.617 140.021 106.269 137.506 105.568C137.077 105.449 136.637 105.315 136.197 105.169L135.687 105.001L136.093 104.649C137.295 103.591 138.625 102.688 140.052 101.961C137.766 102.343 135.539 103.019 133.427 103.973L133.301 104.031L133.174 103.972C128.478 101.786 124.483 98.3382 121.632 94.0131C118.782 89.6881 117.19 84.656 117.032 79.4783C116.875 74.3007 118.159 69.1812 120.742 64.6911C123.324 60.201 127.104 56.517 131.658 54.0501L131.658 54.0501Z" fill="#FF6584"/>
</g>
</g>
<defs>
<clipPath id="clip0_8_759">
<rect width="237" height="200" fill="white"/>
</clipPath>
</defs>
</svg>
