<svg width="21" height="16" viewBox="0 0 21 16" fill="none" xmlns="http://www.w3.org/2000/svg">
<path fill-rule="evenodd" clip-rule="evenodd" d="M14.7968 11.5383C14.8777 13.3704 13.3991 14.9196 11.4946 14.9975C11.3543 15.0034 4.51525 14.9896 4.51525 14.9896C2.6199 15.1335 0.961088 13.7715 0.81159 11.9463C0.800327 11.8103 0.803398 4.47219 0.803398 4.47219C0.719434 2.63815 2.19598 1.08499 4.10157 1.00418C4.2439 0.997278 11.0737 1.01009 11.0737 1.01009C12.9783 0.868176 14.6422 2.24001 14.7897 4.07405C14.7999 4.2061 14.7968 11.5383 14.7968 11.5383Z" fill="white" stroke="#ACA3A3" stroke-width="1.5" stroke-linecap="round" stroke-linejoin="round"/>
<path fill-rule="evenodd" clip-rule="evenodd" d="M14.8 5.97984L18.093 3.28484C18.909 2.61684 20.133 3.19884 20.132 4.25184L20.12 11.6008C20.119 12.6538 18.894 13.2308 18.08 12.5628L14.8 9.86784" fill="white"/>
<path d="M14.8 5.97984L18.093 3.28484C18.909 2.61684 20.133 3.19884 20.132 4.25184L20.12 11.6008C20.119 12.6538 18.894 13.2308 18.08 12.5628L14.8 9.86784" stroke="#9E9E9E" stroke-width="1.5" stroke-linecap="round" stroke-linejoin="round"/>
</svg>
