<svg width="300" height="340" viewBox="0 0 300 340" fill="none" xmlns="http://www.w3.org/2000/svg">
<g clip-path="url(#clip0_5_649)">
<path d="M145.714 226.087C145.226 226.673 144.57 227.096 143.833 227.297C143.097 227.498 142.317 227.469 141.598 227.212C140.879 226.956 140.256 226.485 139.814 225.863C139.372 225.241 139.133 224.499 139.127 223.737C138.915 223.417 138.762 223.187 138.55 222.866C136.688 222.158 134.657 222.02 132.716 222.472C130.776 222.923 129.015 223.943 127.659 225.401C126.302 226.859 125.413 228.688 125.105 230.653C124.796 232.619 125.082 234.632 125.927 236.434C130.587 246.639 134.641 258.046 144.961 263.604C102.941 250.7 70.69 212.719 64.2408 169.385C66.2839 160.889 64.9259 151.26 59.5795 144.207C57.974 147.871 52.5085 149.285 51.4773 144.493C51.1816 142.554 50.903 140.613 50.6072 138.674C29.5624 138.984 35.8184 167.875 61.8059 170.104C63.1175 178.308 65.2843 186.352 68.2711 194.106C63.0137 188.157 56.4172 183.54 49.0241 180.634C41.9787 178.096 34.0506 178.142 26.4408 177.612C17.177 176.956 11.6807 187.961 17.9938 194.755C22.8629 192.009 28.9984 196.662 25.6807 201.853C39.4682 212.254 58.7263 214.596 74.7329 208.248C82.736 223.259 93.8513 236.395 107.338 246.779C90.8382 235.451 72.9363 247.926 57.0841 253.605C55.997 253.895 55.0181 254.495 54.2667 255.331C53.5154 256.168 53.024 257.205 52.8525 258.315C52.6811 259.426 52.837 260.562 53.3013 261.586C53.7656 262.609 54.5181 263.476 55.4671 264.079C57.4681 263.126 59.5591 262.372 61.7092 261.831C62.7234 261.584 63.7894 261.656 64.7611 262.037C65.7328 262.418 66.5627 263.09 67.1369 263.961C67.7112 264.832 68.0017 265.858 67.9686 266.9C67.9356 267.942 67.5806 268.949 66.9524 269.781C85.7267 276.736 108.006 270.811 121.374 256.063C128.811 260.247 136.663 263.648 144.804 266.21L164.722 244.392C164.551 244.093 164.364 243.794 164.186 243.503C162.469 245.638 160.498 247.556 158.314 249.212C156.857 238.102 157.397 231.028 145.715 226.087L145.714 226.087Z" fill="#35383F"/>
<path d="M192.871 251.726C193.545 252.085 194.312 252.229 195.07 252.138C195.828 252.047 196.54 251.725 197.109 251.217C197.678 250.709 198.076 250.038 198.251 249.296C198.425 248.554 198.367 247.776 198.084 247.068C198.16 246.691 198.214 246.421 198.29 246.044C199.747 244.686 201.576 243.794 203.544 243.481C205.511 243.169 207.528 243.45 209.334 244.289C211.141 245.128 212.655 246.487 213.683 248.191C214.711 249.896 215.207 251.868 215.105 253.855C214.644 265.061 215.198 277.153 207.74 286.187C241.782 258.408 257.304 211.085 246.908 168.523C241.807 161.424 239.427 151.995 241.715 143.45C244.585 146.238 250.181 145.489 249.326 140.662C248.867 138.755 248.393 136.853 247.934 134.945C267.541 127.305 272.66 156.418 249.435 168.272C251.319 176.364 252.351 184.63 252.513 192.936C255.135 185.447 259.501 178.686 265.25 173.209C270.816 168.205 278.176 165.262 285.023 161.904C293.355 157.808 302.602 165.929 299.322 174.599C293.775 173.89 289.851 180.511 294.884 184.068C286.044 198.894 269.093 208.318 251.871 208.467C250.129 225.384 244.797 241.736 236.229 256.434C247.231 239.728 268.522 244.538 285.349 243.826C286.465 243.685 287.598 243.872 288.61 244.364C289.622 244.855 290.469 245.63 291.047 246.594C291.625 247.558 291.91 248.67 291.867 249.792C291.823 250.915 291.454 252.001 290.803 252.918C288.589 252.788 286.368 252.878 284.173 253.187C283.14 253.34 282.18 253.808 281.424 254.527C280.668 255.246 280.153 256.181 279.95 257.204C279.747 258.226 279.866 259.287 280.29 260.239C280.714 261.192 281.423 261.99 282.32 262.525C267.559 276.037 244.687 278.942 226.736 270.32C221.429 276.995 215.441 283.102 208.87 288.542L182.182 275.838C182.228 275.497 182.287 275.15 182.343 274.813C184.739 276.144 187.289 277.177 189.937 277.889C187.09 267.051 183.917 260.702 192.87 251.726H192.871Z" fill="#35383F"/>
<path d="M216.89 340H178.77L172.378 308.438L170.304 340H134.894C134.907 315.214 136.2 290.445 138.767 265.792L139.206 264.299L139.9 261.911L140.339 260.412L147.666 235.284L148.245 233.289H192.369C194.908 235.671 197.25 238.254 199.372 241.013C200.091 241.928 200.842 242.919 201.611 243.986C202.146 244.742 202.699 245.536 203.253 246.368C208.169 253.677 211.844 261.746 214.129 270.251V270.257C214.517 271.712 214.861 273.2 215.16 274.722V274.729C215.427 276.082 215.662 277.454 215.847 278.857C215.987 279.88 216.108 280.915 216.197 281.963C216.727 287.77 216.541 293.619 215.643 299.38L216.89 340Z" fill="#2F2E41"/>
<path d="M39.306 183.443C40.503 182.039 39.8346 179.507 37.8132 177.789C35.7917 176.071 33.1827 175.816 31.9857 177.221C30.7887 178.625 31.4571 181.156 33.4785 182.874C35.5 184.593 38.109 184.847 39.306 183.443Z" fill="#35383F"/>
<path d="M48.899 176.02C50.1507 174.905 50.5353 173.295 49.7582 172.426C48.981 171.556 47.3364 171.756 46.0847 172.871C44.833 173.987 44.4484 175.596 45.2255 176.466C46.0027 177.335 47.6474 177.136 48.899 176.02Z" fill="#FF6584"/>
<path d="M76.235 173.453C77.4866 172.338 77.8713 170.729 77.0941 169.859C76.317 168.99 74.6723 169.189 73.4206 170.305C72.169 171.42 71.7843 173.03 72.5615 173.899C73.3386 174.769 74.9833 174.569 76.235 173.453Z" fill="#35383F"/>
<path d="M63.9759 173.172C65.1729 171.768 64.5045 169.237 62.4831 167.519C60.4617 165.8 57.8526 165.546 56.6556 166.95C55.4586 168.354 56.127 170.886 58.1484 172.604C60.1699 174.322 62.7789 174.577 63.9759 173.172Z" fill="#FF6584"/>
<path d="M24.5338 169.436C25.7855 168.32 26.1701 166.711 25.3929 165.842C24.6158 164.972 22.9711 165.172 21.7195 166.287C20.4678 167.403 20.0831 169.012 20.8603 169.881C21.6374 170.751 23.2821 170.551 24.5338 169.436Z" fill="#3F3D56"/>
<path d="M20.9486 157.973C22.1455 156.568 21.4772 154.037 19.4558 152.319C17.4343 150.601 14.8252 150.346 13.6283 151.75C12.4313 153.155 13.0996 155.686 15.1211 157.404C17.1425 159.122 19.7516 159.377 20.9486 157.973Z" fill="#3F3D56"/>
<path d="M150.84 133.895C151.599 133.818 152.317 133.51 152.895 133.013C153.474 132.515 153.885 131.852 154.074 131.114C154.262 130.375 154.219 129.596 153.949 128.883C153.679 128.17 153.197 127.556 152.567 127.126C152.419 126.771 152.313 126.517 152.166 126.162C152.617 124.224 153.637 122.464 155.096 121.109C156.555 119.754 158.386 118.865 160.354 118.556C162.323 118.247 164.338 118.531 166.143 119.374C167.949 120.216 169.461 121.577 170.486 123.283C176.36 132.843 183.572 142.572 182.424 154.225C195.174 112.211 181.637 64.2837 149.243 34.7388C141.045 31.6864 133.805 25.1833 130.933 16.8159C134.873 17.5321 139.1 13.7947 135.695 10.2641C134.249 8.936 132.793 7.62161 131.348 6.29346C143.359 -10.9658 163.863 10.3521 151.201 33.1236C157.283 38.792 162.755 45.0798 167.528 51.8845C165.522 44.2072 165.371 36.1642 167.086 28.4171C168.913 21.1634 173.38 14.6225 177.189 8.0228C181.818 -0.0169292 194.029 1.5765 196.147 10.6004C191.147 13.1002 191.585 20.7812 197.75 20.9321C198.689 38.1618 189.879 55.4222 175.665 65.1353C183.665 80.1486 188.368 96.6921 189.461 113.663C189.267 93.6693 209.628 85.8078 223.199 75.8485C224.047 75.1102 225.092 74.6344 226.206 74.4792C227.321 74.3239 228.456 74.4959 229.475 74.9742C230.493 75.4524 231.35 76.2163 231.941 77.1725C232.532 78.1287 232.831 79.2361 232.803 80.3594C230.893 81.4841 229.099 82.7956 227.449 84.2744C226.677 84.9762 226.141 85.8993 225.915 86.9172C225.689 87.935 225.784 88.9977 226.186 89.9597C226.589 90.9217 227.279 91.7357 228.164 92.2904C229.048 92.845 230.082 93.113 231.124 93.0577C226.416 112.493 209.05 127.639 189.334 130.476C188.656 138.973 187.095 147.376 184.677 155.551L155.429 159.864C155.276 159.555 155.132 159.234 154.99 158.923C157.722 158.694 160.416 158.131 163.012 157.248C154.597 149.836 148.419 146.332 150.839 133.895L150.84 133.895Z" fill="#35383F"/>
<path d="M180.256 124.53C166.941 124.53 159.718 122.905 157.196 119.437C154.97 116.377 156.462 112.339 158.19 107.664C159.432 104.303 160.839 100.495 160.839 96.7251C160.839 78.391 170.149 69.0947 188.508 69.0947C197.643 69.0947 207.451 73.9404 214.745 82.0573C221.376 89.4363 224.68 98.2678 223.808 106.287C223.094 112.864 220.028 117.189 214.161 119.899L213.818 120.057L213.72 119.692C213.214 117.805 212.356 116.029 211.193 114.458C211.079 116.924 210.457 119.341 209.364 121.555L209.301 121.681L209.166 121.72C202.526 123.609 194.644 124.121 188.52 124.355C185.54 124.471 182.785 124.53 180.256 124.53Z" fill="#2F2E41"/>
<path d="M183.885 150.075C183.375 148.577 182.514 147.222 181.374 146.123C180.234 145.023 178.848 144.211 177.332 143.754C175.815 143.297 174.21 143.207 172.652 143.493C171.093 143.778 169.625 144.431 168.37 145.397L124.572 171.546L110.867 138.152C112.025 136.456 112.615 134.437 112.553 132.386C112.491 130.334 111.779 128.355 110.521 126.732C109.263 125.108 107.522 123.925 105.549 123.351C103.575 122.777 101.47 122.842 99.536 123.536C97.6017 124.23 95.9372 125.519 94.7814 127.216C93.6255 128.913 93.0377 130.933 93.1022 132.984C93.1667 135.036 93.8801 137.014 95.1403 138.636C96.4004 140.258 98.1424 141.439 100.117 142.011C100.961 151.641 105.656 194.681 121.987 193.117C135.714 191.802 169.804 169.13 180.392 161.269C182.086 160.013 183.337 158.252 183.965 156.24C184.592 154.229 184.564 152.07 183.885 150.075Z" fill="#FFB6B6"/>
<path d="M93.7877 164.173C95.0393 163.058 95.424 161.448 94.6469 160.579C93.8697 159.709 92.225 159.909 90.9734 161.024C89.7217 162.14 89.337 163.749 90.1142 164.619C90.8914 165.488 92.536 165.289 93.7877 164.173Z" fill="#3F3D56"/>
<path d="M44.5885 159.709C45.8401 158.593 46.2248 156.984 45.4476 156.114C44.6705 155.245 43.0258 155.444 41.7741 156.56C40.5225 157.676 40.1378 159.285 40.915 160.154C41.6921 161.024 43.3368 160.824 44.5885 159.709Z" fill="#35383F"/>
<path d="M173.816 129.634L194.817 128.554L204.571 143.945C204.571 143.945 222.924 147.009 221.651 168.605C220.379 190.202 199.322 209.152 199.322 209.152L200.222 220.399L198.658 224.86L198.859 227.364L200.992 230.017L201.211 232.76L199.322 237.1L201.891 241.256L147.867 236.03L145.891 228.843L148.773 224.984L147.164 219.951L149.584 215.109L150.845 199.731C150.845 199.731 137.04 179.019 152.888 163.419L159.249 152.621L166.366 143.95L173.816 129.634Z" fill="#FF6584"/>
<path d="M2.87374 109.501C4.00946 109.233 4.61688 107.693 4.23046 106.063C3.84404 104.433 2.61009 103.329 1.47437 103.597C0.338651 103.866 -0.268772 105.405 0.11765 107.035C0.504073 108.666 1.73801 109.77 2.87374 109.501Z" fill="#3F3D56"/>
<path d="M3.05733 89.6691C4.19305 89.4006 4.80049 87.8614 4.41407 86.2311C4.02765 84.6007 2.79369 83.4967 1.65797 83.7652C0.522244 84.0336 -0.0851787 85.5729 0.301244 87.2032C0.687667 88.8335 1.92161 89.9375 3.05733 89.6691Z" fill="#35383F"/>
<path d="M184.256 125.288C196.546 125.288 206.509 115.339 206.509 103.067C206.509 90.7944 196.546 80.8456 184.256 80.8456C171.966 80.8456 162.004 90.7944 162.004 103.067C162.004 115.339 171.966 125.288 184.256 125.288Z" fill="#FFB6B6"/>
<path d="M181.277 101.72C179.359 101.72 177.443 101.666 175.527 101.558L175.185 101.539L175.23 101.2C175.512 99.0786 175.353 96.9222 174.763 94.8652C173.762 97.2074 172.271 99.3094 170.392 101.031L170.286 101.128L170.143 101.112C164.941 100.544 159.786 99.6054 154.718 98.3032L154.523 98.2535L154.485 98.0575C154.106 96.2013 153.91 94.3127 153.9 92.4184C153.9 86.5011 156.048 81.5208 159.949 78.3948C164.195 74.9921 170.282 73.9457 177.094 75.4465H198.876C201.271 75.4492 203.567 76.4004 205.26 78.0913C206.953 79.7822 207.906 82.0749 207.909 84.4662V98.2408L207.671 98.3028C199.055 100.564 190.185 101.712 181.277 101.72Z" fill="#2F2E41"/>
<path d="M12.0743 77.9552C14.5499 76.9983 16.0164 74.8284 15.3497 73.1086C14.6831 71.3889 12.1358 70.7705 9.66021 71.7275C7.18461 72.6844 5.71816 74.8543 6.3848 76.5741C7.05144 78.2938 9.59874 78.9122 12.0743 77.9552Z" fill="#FF6584"/>
<path d="M30.2292 68.4244C31.3649 68.156 31.9723 66.6167 31.5859 64.9864C31.1995 63.3561 29.9656 62.2521 28.8298 62.5205C27.6941 62.789 27.0867 64.3282 27.4731 65.9585C27.8595 67.5888 29.0935 68.6929 30.2292 68.4244Z" fill="#35383F"/>
<path d="M13.8132 64.4435C14.9489 64.1751 15.5563 62.6358 15.1699 61.0055C14.7835 59.3752 13.5495 58.2711 12.4138 58.5396C11.2781 58.808 10.6707 60.3473 11.0571 61.9776C11.4435 63.6079 12.6775 64.7119 13.8132 64.4435Z" fill="#FF6584"/>
<path d="M14.7774 51.3993C17.253 50.4424 18.7195 48.2725 18.0528 46.5527C17.3862 44.833 14.8389 44.2146 12.3633 45.1716C9.88772 46.1285 8.42128 48.2984 9.08792 50.0182C9.75457 51.7379 12.3018 52.3563 14.7774 51.3993Z" fill="#35383F"/>
<path d="M169.344 50.743C171.002 49.9292 171.395 47.3411 170.224 44.9623C169.052 42.5835 166.759 41.3149 165.102 42.1287C163.445 42.9426 163.051 45.5307 164.223 47.9094C165.394 50.2882 167.687 51.5569 169.344 50.743Z" fill="#3F3D56"/>
<path d="M31.2136 46.1815C32.3493 45.9131 32.9567 44.3738 32.5703 42.7435C32.1839 41.1132 30.9499 40.0092 29.8142 40.2776C28.6785 40.5461 28.0711 42.0853 28.4575 43.7156C28.8439 45.3459 30.0779 46.45 31.2136 46.1815Z" fill="#3F3D56"/>
<path d="M45.9474 47.4064C48.423 46.4494 49.8894 44.2795 49.2228 42.5598C48.5561 40.8401 46.0088 40.2217 43.5332 41.1787C41.0576 42.1356 39.5912 44.3055 40.2578 46.0252C40.9245 47.745 43.4718 48.3633 45.9474 47.4064Z" fill="#3F3D56"/>
<path d="M29.4377 77.0025C28.4626 77.3587 27.6688 78.0865 27.2304 79.0264C26.792 79.9663 26.7448 81.0414 27.0993 82.016L50.5979 146.404C50.9545 147.377 51.6833 148.17 52.6245 148.608C53.5657 149.046 54.6423 149.093 55.6182 148.739L146.82 115.547C147.795 115.191 148.589 114.463 149.028 113.524C149.466 112.584 149.513 111.509 149.159 110.534L125.66 46.1463C125.303 45.1726 124.575 44.3798 123.633 43.942C122.692 43.5042 121.616 43.4571 120.64 43.811L29.4377 77.0025Z" fill="#FF6584"/>
<path d="M112.877 124.351L57.0517 144.668C56.0014 145.049 54.8426 144.998 53.8296 144.527C52.8167 144.055 52.0322 143.202 51.6484 142.154L30.3354 83.7551C29.9539 82.7062 30.0046 81.549 30.4765 80.5375C30.9483 79.5259 31.8027 78.7425 32.8522 78.3592L118.901 47.0433C119.951 46.6623 121.11 46.713 122.123 47.1842C123.136 47.6554 123.92 48.5086 124.304 49.5567L134.602 77.7746C137.895 86.8285 137.457 96.817 133.384 105.549C129.311 114.28 121.936 121.042 112.877 124.351Z" fill="#FEFEFF"/>
<path d="M72.7077 82.1625L59.4417 86.9904C59.2754 87.0509 59.0987 87.0782 58.9218 87.0705C58.7449 87.0629 58.5712 87.0205 58.4107 86.9459C58.2502 86.8712 58.106 86.7657 57.9863 86.6354C57.8667 86.5051 57.7738 86.3525 57.7132 86.1864C57.6526 86.0202 57.6253 85.8438 57.633 85.6672C57.6406 85.4905 57.683 85.3171 57.7578 85.1568C57.8326 84.9965 57.9382 84.8525 58.0687 84.733C58.1992 84.6135 58.352 84.5208 58.5184 84.4603L71.7843 79.6323C72.1203 79.51 72.4911 79.5261 72.8153 79.6769C73.1395 79.8276 73.3904 80.1008 73.5128 80.4363C73.6353 80.7719 73.6192 81.1422 73.4682 81.4659C73.3173 81.7896 73.0437 82.0402 72.7077 82.1625H72.7077Z" fill="#9E9E9E"/>
<path d="M104.334 76.514L61.3301 92.1646C61.1637 92.2254 60.9869 92.2528 60.8099 92.2453C60.6328 92.2378 60.459 92.1956 60.2983 92.121C60.1376 92.0463 59.9933 91.9408 59.8734 91.8104C59.7536 91.6801 59.6607 91.5274 59.6001 91.3611C59.5394 91.1948 59.5121 91.0183 59.5198 90.8415C59.5275 90.6647 59.5701 90.4911 59.645 90.3308C59.7199 90.1704 59.8258 90.0264 59.9565 89.9069C60.0872 89.7874 60.2402 89.6948 60.4068 89.6344L103.411 73.9839C103.577 73.9233 103.754 73.8961 103.93 73.9037C104.107 73.9114 104.281 73.9537 104.442 74.0284C104.602 74.1031 104.746 74.2086 104.866 74.3389C104.986 74.4692 105.078 74.6218 105.139 74.7879C105.2 74.954 105.227 75.1305 105.219 75.3071C105.212 75.4838 105.169 75.6572 105.095 75.8175C105.02 75.9778 104.914 76.1218 104.784 76.2413C104.653 76.3608 104.5 76.4535 104.334 76.514Z" fill="#9E9E9E"/>
<path d="M106.501 82.4533L63.4977 98.1038C63.3313 98.1644 63.1546 98.1916 62.9777 98.184C62.8008 98.1763 62.6271 98.134 62.4666 98.0593C62.3061 97.9846 62.1619 97.8791 62.0422 97.7488C61.9226 97.6185 61.8298 97.4659 61.7691 97.2998C61.7085 97.1337 61.6812 96.9572 61.6889 96.7806C61.6965 96.6039 61.739 96.4305 61.8137 96.2702C61.8885 96.1099 61.9941 95.9659 62.1246 95.8464C62.2551 95.7269 62.4079 95.6342 62.5743 95.5737L105.578 79.9231C105.914 79.8014 106.284 79.8177 106.608 79.9686C106.932 80.1194 107.183 80.3925 107.305 80.7277C107.427 81.063 107.411 81.433 107.261 81.7566C107.11 82.0801 106.837 82.3307 106.501 82.4533Z" fill="#9E9E9E"/>
<path d="M108.669 88.3925L65.6652 104.043C65.4988 104.104 65.322 104.131 65.145 104.124C64.9679 104.116 64.7941 104.074 64.6334 103.999C64.4727 103.925 64.3283 103.819 64.2085 103.689C64.0887 103.559 63.9958 103.406 63.9351 103.24C63.8745 103.073 63.8472 102.897 63.8549 102.72C63.8626 102.543 63.9052 102.37 63.9801 102.209C64.055 102.049 64.1608 101.905 64.2916 101.785C64.4223 101.666 64.5753 101.573 64.7418 101.513L107.746 85.8624C107.912 85.8018 108.089 85.7746 108.266 85.7822C108.442 85.7899 108.616 85.8322 108.777 85.9069C108.937 85.9815 109.081 86.087 109.201 86.2174C109.321 86.3477 109.414 86.5003 109.474 86.6664C109.535 86.8325 109.562 87.0089 109.554 87.1856C109.547 87.3623 109.504 87.5357 109.43 87.696C109.355 87.8563 109.249 88.0003 109.119 88.1198C108.988 88.2393 108.835 88.332 108.669 88.3925Z" fill="#9E9E9E"/>
<path d="M110.837 94.3318L67.8328 109.982C67.4968 110.105 67.1259 110.089 66.8017 109.938C66.4776 109.787 66.2267 109.514 66.1042 109.178C65.9818 108.843 65.9978 108.472 66.1488 108.149C66.2998 107.825 66.5734 107.574 66.9094 107.452L109.913 91.8016C110.08 91.7411 110.256 91.7138 110.433 91.7215C110.61 91.7291 110.784 91.7715 110.944 91.8461C111.105 91.9208 111.249 92.0263 111.369 92.1566C111.488 92.2869 111.581 92.4395 111.642 92.6057C111.702 92.7718 111.73 92.9482 111.722 93.1249C111.714 93.3015 111.672 93.4749 111.597 93.6352C111.522 93.7955 111.417 93.9395 111.286 94.059C111.156 94.1785 111.003 94.2712 110.837 94.3318H110.837Z" fill="#9E9E9E"/>
<path d="M247.288 110.826L223.743 167.091C222.738 169.472 220.837 171.362 218.448 172.355C216.06 173.348 213.376 173.364 210.976 172.398C209.735 171.899 208.608 171.152 207.665 170.204C206.722 169.255 205.983 168.125 205.491 166.882C205 165.639 204.767 164.309 204.808 162.973C204.848 161.637 205.16 160.323 205.725 159.112L231.977 101.415L246.449 65.6855C245.198 64.4401 244.362 62.8403 244.054 61.1037C243.745 59.3671 243.98 57.5778 244.725 55.9789C245.471 54.38 246.691 53.049 248.22 52.1668C249.75 51.2845 251.514 50.8938 253.273 51.0477C255.033 51.2015 256.702 51.8926 258.054 53.0269C259.407 54.1611 260.377 55.6837 260.833 57.3876C261.288 59.0916 261.208 60.8944 260.602 62.551C259.996 64.2077 258.894 65.6379 257.446 66.6473L247.288 110.826Z" fill="#FFB6B6"/>
<path d="M145.428 35.1628C147.021 34.6355 148.014 33.3113 147.647 32.2051C147.279 31.0988 145.691 30.6294 144.098 31.1567C142.506 31.6839 141.513 33.0081 141.88 34.1144C142.247 35.2206 143.836 35.69 145.428 35.1628Z" fill="#35383F"/>
<path d="M167.702 34.1925C169.294 33.6653 170.287 32.3411 169.92 31.2348C169.553 30.1286 167.964 29.6592 166.372 30.1865C164.779 30.7137 163.786 32.0379 164.153 33.1442C164.521 34.2504 166.109 34.7198 167.702 34.1925Z" fill="#3F3D56"/>
<path d="M147.962 18.4838C149.554 17.9565 150.547 16.6323 150.18 15.5261C149.813 14.4198 148.224 13.9505 146.631 14.4777C145.039 15.005 144.046 16.3292 144.413 17.4354C144.78 18.5417 146.369 19.011 147.962 18.4838Z" fill="#FF6584"/>
<path d="M162.632 20.0863C164.289 19.2725 164.682 16.6843 163.511 14.3056C162.339 11.9268 160.046 10.6582 158.389 11.472C156.732 12.2858 156.338 14.8739 157.51 17.2527C158.681 19.6315 160.974 20.9001 162.632 20.0863Z" fill="#35383F"/>
<path d="M135.903 19.7242C137.56 18.9104 137.954 16.3223 136.782 13.9435C135.611 11.5647 133.318 10.2961 131.661 11.1099C130.004 11.9237 129.61 14.5119 130.781 16.8907C131.953 19.2694 134.246 20.5381 135.903 19.7242Z" fill="#FF6584"/>
<path d="M102.055 11.5485C103.648 11.0213 104.641 9.69705 104.274 8.5908C103.906 7.48455 102.318 7.01518 100.725 7.54242C99.1327 8.06967 98.1395 9.39386 98.5068 10.5001C98.8741 11.6064 100.463 12.0757 102.055 11.5485Z" fill="#3F3D56"/>
<path d="M121.854 9.99528C123.447 9.46803 124.44 8.14384 124.072 7.03759C123.705 5.93134 122.117 5.46194 120.524 5.98919C118.932 6.51643 117.938 7.84065 118.306 8.9469C118.673 10.0531 120.262 10.5225 121.854 9.99528Z" fill="#35383F"/>
</g>
<defs>
<clipPath id="clip0_5_649">
<rect width="300" height="340" fill="white"/>
</clipPath>
</defs>
</svg>
