<svg width="300" height="300" viewBox="0 0 300 300" fill="none" xmlns="http://www.w3.org/2000/svg">
<path d="M64.4059 180.361C61.8134 180.361 59.7041 182.47 59.7041 185.063C59.7041 187.655 61.8134 189.765 64.4059 189.765H170.134C172.727 189.765 174.836 187.655 174.836 185.063C174.836 182.47 172.727 180.361 170.134 180.361H64.4059Z" fill="#35383F"/>
<path d="M64.4059 273.602C61.8134 273.602 59.7041 275.711 59.7041 278.304C59.7041 280.896 61.8134 283.006 64.4059 283.006H170.134C172.727 283.006 174.836 280.896 174.836 278.304C174.836 275.711 172.727 273.602 170.134 273.602H64.4059Z" fill="#35383F"/>
<path d="M84.3863 211.441C81.7939 211.441 79.6846 213.551 79.6846 216.143C79.6846 218.736 81.7939 220.845 84.3863 220.845H261.294C263.887 220.845 265.996 218.736 265.996 216.143C265.996 213.551 263.887 211.441 261.294 211.441H84.3863Z" fill="#35383F"/>
<path d="M84.3863 242.522C81.7939 242.522 79.6846 244.631 79.6846 247.223C79.6846 249.816 81.7939 251.925 84.3863 251.925H261.294C263.887 251.925 265.996 249.816 265.996 247.223C265.996 244.631 263.887 242.522 261.294 242.522H84.3863Z" fill="#35383F"/>
<path d="M36.9528 188.582C38.8965 188.582 40.4721 187.006 40.4721 185.062C40.4721 183.119 38.8965 181.543 36.9528 181.543C35.0092 181.543 33.4336 183.119 33.4336 185.062C33.4336 187.006 35.0092 188.582 36.9528 188.582Z" fill="#35383F"/>
<path d="M36.9528 281.823C38.8965 281.823 40.4721 280.247 40.4721 278.303C40.4721 276.36 38.8965 274.784 36.9528 274.784C35.0092 274.784 33.4336 276.36 33.4336 278.303C33.4336 280.247 35.0092 281.823 36.9528 281.823Z" fill="#35383F"/>
<path d="M58.6545 219.662C60.5981 219.662 62.1737 218.086 62.1737 216.143C62.1737 214.199 60.5981 212.624 58.6545 212.624C56.7109 212.624 55.1353 214.199 55.1353 216.143C55.1353 218.086 56.7109 219.662 58.6545 219.662Z" fill="#35383F"/>
<path d="M58.6545 250.742C60.5981 250.742 62.1737 249.167 62.1737 247.223C62.1737 245.279 60.5981 243.704 58.6545 243.704C56.7109 243.704 55.1353 245.279 55.1353 247.223C55.1353 249.167 56.7109 250.742 58.6545 250.742Z" fill="#35383F"/>
<path d="M22.0369 188.626L20.6149 188.471C20.7543 187.999 20.8228 187.495 20.898 187.037C21.2467 184.908 21.3412 182.754 21.1557 180.605C21.0899 179.843 20.2435 179.448 19.6537 179.983L16.5799 182.77C15.7393 183.533 16.9866 184.774 17.8242 184.015C18.3773 183.513 18.9304 183.011 19.4835 182.51C19.4957 183.486 19.4586 184.462 19.3549 185.434C19.2729 186.202 19.1554 186.972 18.9827 187.726C18.9423 187.901 18.904 188.107 18.8159 188.276C18.567 188.248 18.318 188.221 18.0691 188.194C17.2345 188.104 17.013 189.18 17.447 189.696C17.9046 190.241 18.6681 190.329 19.3025 190.088L22.0369 190.385C22.51 190.437 22.9167 189.944 22.9167 189.505C22.9167 188.987 22.5114 188.677 22.0369 188.626V188.626ZM18.6243 188.467C18.6045 188.474 18.5869 188.48 18.5862 188.475C18.5826 188.453 18.5998 188.455 18.6243 188.467Z" fill="#35383F"/>
<path d="M22.4974 220.076C21.6864 220.01 20.8755 219.945 20.0645 219.88C21.586 218.477 22.6958 216.575 22.8922 214.536C23.0352 213.052 22.4021 211.385 20.9841 210.727C19.5569 210.065 17.8276 210.604 17.2777 212.143C16.6991 213.763 18.2786 215.5 19.948 214.973C21.0239 214.632 20.5643 212.933 19.4802 213.276C19.2192 213.358 18.9213 213.195 18.9043 212.887C18.8863 212.561 19.2187 212.269 19.5126 212.202C20.7175 211.927 21.2068 213.471 21.1464 214.368C20.9907 216.68 19.1115 218.77 17.1498 219.802C16.3201 220.238 16.7852 221.376 17.5939 221.441C19.2284 221.573 20.8629 221.704 22.4974 221.835C22.9716 221.873 23.3772 221.404 23.3772 220.955C23.3772 220.448 22.973 220.114 22.4974 220.076V220.076Z" fill="#35383F"/>
<path d="M22.8407 246.595C23.535 245.838 23.7194 244.675 23.3831 243.714C23.0028 242.627 22.0211 241.824 20.9077 241.569C19.7048 241.293 18.4685 241.609 17.4357 242.25C16.4756 242.846 17.3581 244.369 18.3238 243.77C19.2991 243.164 20.8614 242.864 21.593 244.015C21.8451 244.411 21.8942 245.032 21.5619 245.401C21.4731 245.5 21.3671 245.565 21.2556 245.613C20.8658 245.489 20.4512 245.421 20.0167 245.433C19.1355 245.459 18.8315 246.604 19.5727 247.073C20.0309 247.362 20.5583 247.474 21.0769 247.436C21.9558 247.895 22.4511 248.936 22.0371 249.972C21.495 251.328 19.7378 251.623 18.7129 250.622C17.9024 249.83 16.657 251.073 17.4687 251.866C18.4056 252.782 19.7382 253.158 21.0197 252.897C22.265 252.643 23.2262 251.719 23.687 250.56C24.2611 249.115 23.823 247.601 22.8407 246.595L22.8407 246.595Z" fill="#35383F"/>
<path d="M23.2372 277.922C23.4064 276.278 23.5756 274.633 23.7449 272.988C23.7936 272.515 23.3056 272.109 22.865 272.109C22.3488 272.109 22.0341 272.514 21.9852 272.988L21.4833 277.867C19.849 277.884 18.2148 277.902 16.5805 277.912C16.5711 277.912 16.5652 277.911 16.556 277.911L16.5613 277.9L16.7743 277.522C16.8926 277.312 17.011 277.102 17.1293 276.892L18.6913 274.122C19.2481 273.134 17.7286 272.246 17.1719 273.233C16.5684 274.304 15.9649 275.375 15.3615 276.445C15.0682 276.965 14.6288 277.542 14.5975 278.158C14.5635 278.828 15.0071 279.379 15.6359 279.572C16.1459 279.728 16.7148 279.67 17.2397 279.666L19.0709 279.649C19.8146 279.642 20.5583 279.635 21.302 279.629C21.1651 280.959 21.0282 282.289 20.8914 283.619C20.8427 284.093 21.3306 284.499 21.7712 284.499C22.2875 284.499 22.6022 284.094 22.651 283.619C22.7891 282.278 22.9271 280.936 23.0652 279.594C23.8874 279.428 23.9461 278.22 23.2372 277.922ZM16.1836 277.901C16.1022 277.909 16.117 277.853 16.1836 277.901V277.901Z" fill="#35383F"/>
<path d="M195.454 150.947C196.803 168.742 196.481 185.366 193.26 199.957L240.697 199.924L262.163 184.982C256.298 165.288 252.31 161.929 256.717 148.224L195.454 150.947Z" fill="#FFB6B6"/>
<path d="M196.041 150.002C197.39 161.625 192.368 167.791 189.146 177.322L189.147 177.322C198.536 171.312 214.619 171.619 225.511 173.998L259.531 181.427C253.666 168.564 252.897 157.176 257.304 148.224L196.041 150.002Z" fill="#3F3D56"/>
<path d="M261.086 179.446L276.766 218.2C281.848 230.762 283.936 244.336 282.863 257.845L279.574 299.265H232.463C232.463 299.265 230.069 289.123 231.864 289.687C233.659 290.251 229.492 287.515 231.575 285.07C233.659 282.626 230.85 273.474 230.85 273.474C230.85 273.474 227.847 283.956 223.483 299.265H171.715C176.079 271.017 180.736 237.062 178.29 234.734C174.061 230.71 178.437 231.953 182.824 228.041C187.211 224.135 185.927 221.061 183.616 218.78C181.311 216.504 184.56 215.612 186.607 213.571C188.648 211.53 193.745 186.848 193.745 186.848C193.78 186.872 195.498 187.003 195.534 187.02C196.707 188.193 203.913 190.54 220.755 190.54C235.418 190.54 257.76 181.136 260.535 179.734C260.898 179.546 261.086 179.446 261.086 179.446Z" fill="#2F2E41"/>
<path d="M292.757 155.2L276.372 94.5535C274.911 89.2118 269.436 86.0295 264.072 87.4051H264.072C258.442 88.8487 255.176 94.7186 256.916 100.263L275.867 162.739L285.783 201.186C283.055 203.277 281.686 206.864 282.594 210.403C283.807 215.133 288.624 217.983 293.354 216.77C298.083 215.558 300.934 210.74 299.721 206.011C299.278 204.284 298.352 202.812 297.128 201.692L292.757 155.2Z" fill="#FFB6B6"/>
<path d="M154.878 142.139L204.663 103.825C209.041 100.434 209.89 94.1583 206.569 89.7268L206.569 89.7268C203.084 85.0762 196.412 84.3002 191.953 88.0268L141.459 129.411L109.716 153.265C106.743 151.542 102.904 151.648 99.9807 153.839C96.0734 156.767 95.2794 162.308 98.2074 166.216C101.135 170.123 106.676 170.917 110.584 167.989C112.01 166.92 113.016 165.501 113.583 163.942L154.878 142.139Z" fill="#FFB6B6"/>
<path d="M237.822 61.0964H214.863L205.004 77.9682L200.306 77.7088C195.456 77.4411 190.991 79.2374 187.739 82.3151C186.113 83.8539 187.745 87.8667 183.873 87.7945C179.263 87.7086 173.584 96.8887 175.07 101.658V127.466C182.443 127.193 188.691 115.34 188.561 105.764C188.561 105.764 177.883 121.623 192.796 130.499C192.796 130.499 190.136 160.126 192.796 159.946C195.455 159.766 196.772 161.485 193.189 162.972C186.715 165.658 195.065 168.906 195.858 169.698C196.386 170.226 196.65 170.491 196.65 170.491C204.866 153.807 235.931 177.749 261.597 184.173C264.513 181.968 265.689 177.074 260.408 172.915C255.442 169.005 262.313 160.443 264.16 161.799C265.963 163.122 256.719 151.627 258.08 146.182C259.442 140.736 261.484 142.778 259.442 140.736C257.399 138.694 268.089 128.208 261.814 118.395L266.834 138.485C263.448 139.103 263.188 140.287 264.225 142.716C264.583 143.555 266.49 143.849 266.531 147.388C266.571 150.927 268.756 146.11 267.664 148.225C266.571 150.341 268.824 148.879 269.503 149.168C277.77 151.858 284.552 149.406 290.619 144.475C291.016 143.366 294.801 139.39 292.123 140.466C289.446 141.543 289.507 139.342 292.409 138.976C295.311 138.61 292.044 137.13 291.858 136.115C291.515 134.237 290.614 132.343 287.686 133.331C286.118 123.475 285.097 109.154 279.996 104.318C279.996 101.806 277.226 86.1398 273.626 86.7241C270.025 87.3084 271.704 84.6421 270.538 83.7037C265.28 79.4712 257.576 76.7229 251.927 76.7229H250.721L237.822 61.0964Z" fill="#FF6584"/>
<path d="M161.885 162.471H13.4904C6.05184 162.471 0 156.42 0 148.981V42.8173C0 35.3787 6.05184 29.3269 13.4904 29.3269H161.885C169.324 29.3269 175.375 35.3787 175.375 42.8173V148.981C175.375 156.42 169.324 162.471 161.885 162.471Z" fill="white"/>
<path d="M161.885 162.471H13.4904C6.05184 162.471 0 156.42 0 148.981V42.8173C0 35.3787 6.05184 29.3269 13.4904 29.3269H161.885C169.324 29.3269 175.375 35.3787 175.375 42.8173V148.981C175.375 156.42 169.324 162.471 161.885 162.471ZM80.2779 30.5C36.5895 30.5 1.17308 65.9164 1.17308 109.605V148.981C1.17308 155.784 6.68774 161.298 13.4904 161.298H161.885C168.688 161.298 174.202 155.784 174.202 148.981V42.8173C174.202 36.0146 168.688 30.5 161.885 30.5H80.2779Z" fill="#FF4D67"/>
<path d="M50.962 123.593H27.5005C26.2068 123.593 25.1543 122.541 25.1543 121.247C25.1543 119.954 26.2068 118.901 27.5005 118.901H50.962C52.2557 118.901 53.3082 119.954 53.3082 121.247C53.3082 122.541 52.2557 123.593 50.962 123.593Z" fill="#1F222A"/>
<path d="M101.991 140.769H27.5005C26.2068 140.769 25.1543 139.717 25.1543 138.423C25.1543 137.13 26.2068 136.077 27.5005 136.077H101.991C103.285 136.077 104.337 137.13 104.337 138.423C104.337 139.717 103.285 140.769 101.991 140.769Z" fill="#1F222A"/>
<path d="M113.267 124.933C133.675 124.933 150.219 108.389 150.219 87.9808C150.219 67.5728 133.675 51.0288 113.267 51.0288C92.8594 51.0288 76.3154 67.5728 76.3154 87.9808C76.3154 108.389 92.8594 124.933 113.267 124.933Z" fill="#FFB6B6"/>
<path d="M105.666 73.8665C105.175 73.8665 104.687 74.0011 104.25 74.2683C103.435 74.7661 102.949 75.633 102.949 76.5874V99.3745C102.949 100.329 103.435 101.196 104.25 101.694C105.064 102.191 106.057 102.228 106.907 101.794L129.145 90.4002C130.071 89.9258 130.624 89.0215 130.624 87.981C130.624 86.9405 130.071 86.0361 129.145 85.5618L106.907 74.1683C106.513 73.9667 106.089 73.8665 105.666 73.8665Z" fill="#35383F"/>
<path d="M244.601 51.1974C227.955 55.5612 210.688 57.3635 203.632 66.8476C203.632 66.8476 212.137 50.8731 203.408 50.9428C188.742 51.0598 204.936 24 210.389 20.7414C219.479 15.3103 240.977 19.0138 240.977 19.0138L251.733 32.4561L244.601 51.1974Z" fill="#2F2E41"/>
<path d="M226.805 55.5305C239.868 55.5305 250.459 44.9402 250.459 31.8763C250.459 18.8125 239.868 8.22217 226.805 8.22217C213.741 8.22217 203.15 18.8125 203.15 31.8763C203.15 44.9402 213.741 55.5305 226.805 55.5305Z" fill="#FFB6B6"/>
<path d="M238.144 26.7886L237.45 30.8296L221.366 28.0672C221.941 26.5601 221.933 24.8196 221.2 23.3707C220.921 24.9453 220.247 26.4438 219.273 27.7076C209.501 28.8603 209.301 30.6249 203.369 26.8289C201.391 26.4893 200.063 24.6106 200.403 22.6328V22.6328C202.531 10.2431 206.493 -1.67726 218.924 0.194995C225.382 1.16777 230.784 4.7329 234.265 9.64782C237.651 14.4478 239.217 20.5411 238.144 26.7886Z" fill="#2F2E41"/>
<path d="M228.428 40.0233C230.639 27.148 221.994 14.9177 209.119 12.7063C207.542 12.4353 205.974 12.3295 204.434 12.3723C206.666 9.83614 209.762 8.10004 213.252 7.60651L232.775 7.30078C241.705 8.83461 256.809 8.93136 260.604 16.4284C264.105 23.3221 257.69 31.3008 260.576 38.4624C263.739 46.3109 261.466 53.0918 258.337 56.2348C254.718 59.871 248.636 64.3566 243.61 63.7856C243.995 62.1509 243.857 60.4052 243.093 58.8967C242.808 60.4964 242.199 62.0405 241.318 63.4023L205.142 73.7775C208.597 72.6252 213.123 67.8373 217.274 62.0514C219.731 58.6266 225.543 59.4818 223.953 51.2748C222.363 43.0678 227.949 42.8077 228.428 40.0233Z" fill="#2F2E41"/>
</svg>
